<svg width="244" height="85" viewBox="0 0 244 85" fill="none" xmlns="http://www.w3.org/2000/svg">
<g clip-path="url(#clip0_20_472)">
<g clip-path="url(#clip1_20_472)">
<path d="M152.409 22.7072H97.7583L90.4719 15.4207H57.1035V14.6986H90.7728L98.0592 21.9851H152.409V22.7072Z" fill="#0F131C"/>
<path d="M88.0002 20.3753H52.5858L35.2447 3.03414H10.7676V2.31201H35.5456L52.8867 19.6531H88.0002V20.3753Z" fill="#0F131C"/>
<path d="M128.806 48.067H71.8228L31.2031 7.44724L31.7146 6.93573L72.1187 47.3448H128.806V48.067Z" fill="#0F131C"/>
<path d="M122.391 53.9291H69.4504L27.2309 11.7046H2.3125V10.9825H27.5268L69.7513 53.2069H122.391V53.9291Z" fill="#0F131C"/>
<path d="M192.337 37.2098H150.293L140.895 27.8071H62.3535V27.085H141.191L150.594 36.4877H192.337V37.2098Z" fill="#0F131C"/>
<path d="M136.087 32.0947H68.4727V32.8169H136.087V32.0947Z" fill="#0F131C"/>
<path d="M205.898 64.9316H168.437L142.06 38.5589H72.8457V37.8317H142.361L168.733 64.2095H205.597L243.704 26.1022H282.689V26.8243H244L205.898 64.9316Z" fill="#0F131C"/>
<path d="M129.006 82.6989L128.494 82.1874L140.605 70.0767H210.732L249.019 31.7838H278.897V32.511H249.32L211.032 70.7988H140.901L129.006 82.6989Z" fill="#0F131C"/>
<path d="M63.5923 72.2933H18.6348V71.5712H63.2964L70.6531 64.2095H157.654V64.9316H70.954L63.5923 72.2933Z" fill="#0F131C"/>
<path d="M58.7844 66.4612H29.127V65.739H58.4885L65.118 59.1095H147.18V59.8316H65.4189L58.7844 66.4612Z" fill="#0F131C"/>
<path d="M202.107 30.9763H154.451V30.2542H201.806L223.72 8.3446H269.57V9.06673H224.021L202.107 30.9763Z" fill="#0F131C"/>
<path d="M203.827 42.4954H156.492V43.2175H203.827V42.4954Z" fill="#0F131C"/>
<path d="M209.974 50.7949H162.609V50.0728H209.673L240.479 19.272H272.779V19.9942H240.78L209.974 50.7949Z" fill="#0F131C"/>
<path d="M208.469 35.6503L207.963 35.1387L229.276 13.8259H263.301V14.5481H229.572L208.469 35.6503Z" fill="#0F131C"/>
<path d="M8.45022 5.35108C6.97588 5.35108 5.77734 4.15254 5.77734 2.6782C5.77734 1.20385 6.97588 0.000305176 8.45022 0.000305176C9.92457 0.000305176 11.1231 1.19884 11.1231 2.67318C11.1231 4.14753 9.92457 5.34606 8.45022 5.34606V5.35108ZM8.45022 0.722434C7.37204 0.722434 6.49947 1.60002 6.49947 2.67318C6.49947 3.74635 7.37706 4.62393 8.45022 4.62393C9.52339 4.62393 10.401 3.74635 10.401 2.67318C10.401 1.59501 9.52339 0.722434 8.45022 0.722434Z" fill="#0F131C"/>
<path d="M154.45 25.0239C152.976 25.0239 151.777 23.8254 151.777 22.351C151.777 20.8767 152.976 19.6782 154.45 19.6782C155.925 19.6782 157.123 20.8767 157.123 22.351C157.123 23.8254 155.925 25.0239 154.45 25.0239ZM154.45 20.3953C153.372 20.3953 152.499 21.2729 152.499 22.346C152.499 23.4192 153.377 24.2968 154.45 24.2968C155.523 24.2968 156.401 23.4192 156.401 22.346C156.401 21.2729 155.523 20.3953 154.45 20.3953Z" fill="#0F131C"/>
<path d="M154.175 45.5345C152.7 45.5345 151.502 44.336 151.502 42.8617C151.502 41.3873 152.7 40.1888 154.175 40.1888C155.649 40.1888 156.848 41.3873 156.848 42.8617C156.848 44.336 155.649 45.5345 154.175 45.5345ZM154.175 40.9059C153.097 40.9059 152.224 41.7835 152.224 42.8566C152.224 43.9348 153.102 44.8074 154.175 44.8074C155.248 44.8074 156.126 43.9298 156.126 42.8566C156.126 41.7835 155.248 40.9059 154.175 40.9059Z" fill="#0F131C"/>
<path d="M194.653 39.5216C193.179 39.5216 191.98 38.3231 191.98 36.8487C191.98 35.3744 193.179 34.1758 194.653 34.1758C196.128 34.1758 197.326 35.3744 197.326 36.8487C197.326 38.3231 196.128 39.5216 194.653 39.5216ZM194.653 34.893C193.575 34.893 192.703 35.7705 192.703 36.8437C192.703 37.9169 193.58 38.7945 194.653 38.7945C195.727 38.7945 196.604 37.9169 196.604 36.8437C196.604 35.7655 195.727 34.893 194.653 34.893Z" fill="#0F131C"/>
<path d="M124.702 56.2458C123.228 56.2458 122.029 55.0473 122.029 53.573C122.029 52.0986 123.228 50.9001 124.702 50.9001C126.177 50.9001 127.375 52.0986 127.375 53.573C127.375 55.0473 126.177 56.2458 124.702 56.2458ZM124.702 51.6172C123.624 51.6172 122.751 52.4948 122.751 53.5679C122.751 54.6411 123.629 55.5187 124.702 55.5187C125.775 55.5187 126.653 54.6411 126.653 53.5679C126.653 52.4948 125.775 51.6172 124.702 51.6172Z" fill="#0F131C"/>
<path d="M26.8135 68.7778C25.3392 68.7778 24.1406 67.5793 24.1406 66.105C24.1406 64.6306 25.3392 63.4321 26.8135 63.4321C28.2878 63.4321 29.4864 64.6306 29.4864 66.105C29.4864 67.5793 28.2878 68.7778 26.8135 68.7778ZM26.8135 64.1492C25.7353 64.1492 24.8628 65.0268 24.8628 66.0999C24.8628 67.1731 25.7403 68.0507 26.8135 68.0507C27.8867 68.0507 28.7643 67.1731 28.7643 66.0999C28.7643 65.0268 27.8867 64.1492 26.8135 64.1492Z" fill="#0F131C"/>
<path d="M159.972 66.9073C158.497 66.9073 157.299 65.7088 157.299 64.2345C157.299 62.7601 158.497 61.5616 159.972 61.5616C161.446 61.5616 162.645 62.7601 162.645 64.2345C162.645 65.7088 161.446 66.9073 159.972 66.9073ZM159.972 62.2787C158.894 62.2787 158.021 63.1563 158.021 64.2294C158.021 65.3026 158.899 66.1802 159.972 66.1802C161.045 66.1802 161.922 65.3026 161.922 64.2294C161.922 63.1563 161.045 62.2787 159.972 62.2787Z" fill="#0F131C"/>
<path d="M66.1592 35.1338C64.6849 35.1338 63.4863 33.9353 63.4863 32.461C63.4863 30.9866 64.6849 29.7881 66.1592 29.7881C67.6335 29.7881 68.8321 30.9866 68.8321 32.461C68.8321 33.9353 67.6335 35.1338 66.1592 35.1338ZM66.1592 30.5052C65.081 30.5052 64.2085 31.3828 64.2085 32.4559C64.2085 33.5341 65.086 34.4067 66.1592 34.4067C67.2374 34.4067 68.11 33.5291 68.11 32.4559C68.11 31.3828 67.2324 30.5052 66.1592 30.5052Z" fill="#0F131C"/>
<path d="M57.1041 15.0597C57.1041 16.3384 56.066 17.3715 54.7923 17.3715C53.5185 17.3715 52.4805 16.3334 52.4805 15.0597C52.4805 13.7859 53.5185 12.7479 54.7923 12.7479C56.0711 12.7479 57.1041 13.7859 57.1041 15.0597Z" fill="#0F131C"/>
<path d="M33.7701 7.30168C33.7701 8.58045 32.7321 9.6135 31.4583 9.6135C30.1845 9.6135 29.1465 8.57544 29.1465 7.30168C29.1465 6.02793 30.1845 4.98987 31.4583 4.98987C32.7321 4.98987 33.7701 6.02793 33.7701 7.30168Z" fill="#0F131C"/>
<path d="M90.3111 20.0143C90.3111 21.293 89.2731 22.3261 87.9993 22.3261C86.7205 22.3261 85.6875 21.288 85.6875 20.0143C85.6875 18.7355 86.7256 17.7025 87.9993 17.7025C89.2731 17.7025 90.3111 18.7405 90.3111 20.0143Z" fill="#0F131C"/>
<path d="M64.6666 27.446C64.6666 28.7248 63.6285 29.7578 62.3548 29.7578C61.076 29.7578 60.043 28.7198 60.043 27.446C60.043 26.1673 61.081 25.1342 62.3548 25.1342C63.6285 25.1342 64.6666 26.1723 64.6666 27.446Z" fill="#0F131C"/>
<path d="M75.1568 38.2079C75.1568 39.4866 74.1188 40.5197 72.845 40.5197C71.5713 40.5197 70.5332 39.4816 70.5332 38.2079C70.5332 36.9341 71.5713 35.8961 72.845 35.8961C74.1188 35.8961 75.1568 36.9341 75.1568 38.2079Z" fill="#0F131C"/>
<path d="M4.62864 11.3436C4.62864 12.6223 3.59058 13.6554 2.31683 13.6554C1.04307 13.6554 0 12.6223 0 11.3436C0 10.0648 1.03806 9.03174 2.31181 9.03174C3.59058 9.03174 4.62363 10.0698 4.62363 11.3436H4.62864Z" fill="#0F131C"/>
<path d="M131.116 47.7058C131.116 48.9846 130.078 50.0176 128.804 50.0176C127.525 50.0176 126.492 48.9796 126.492 47.7058C126.492 46.427 127.53 45.394 128.804 45.394C130.078 45.394 131.116 46.432 131.116 47.7058Z" fill="#0F131C"/>
<path d="M20.9459 71.9323C20.9459 73.2111 19.9078 74.2441 18.6341 74.2441C17.3553 74.2441 16.3223 73.2061 16.3223 71.9323C16.3223 70.6585 17.3603 69.6205 18.6341 69.6205C19.9078 69.6205 20.9459 70.6585 20.9459 71.9323Z" fill="#0F131C"/>
<path d="M147.179 61.9176C148.456 61.9176 149.491 60.8825 149.491 59.6058C149.491 58.329 148.456 57.2939 147.179 57.2939C145.902 57.2939 144.867 58.329 144.867 59.6058C144.867 60.8825 145.902 61.9176 147.179 61.9176Z" fill="#0F131C"/>
<path d="M131.061 82.4431C131.061 83.7219 130.023 84.7549 128.749 84.7549C127.471 84.7549 126.438 83.7169 126.438 82.4431C126.438 81.1693 127.476 80.1313 128.749 80.1313C130.023 80.1313 131.061 81.1693 131.061 82.4431Z" fill="#0F131C"/>
<path d="M138.403 32.9322C138.403 34.2109 137.365 35.244 136.091 35.244C134.817 35.244 133.779 34.2059 133.779 32.9322C133.779 31.6534 134.817 30.6204 136.091 30.6204C137.365 30.6204 138.403 31.6584 138.403 32.9322Z" fill="#0F131C"/>
<path d="M156.762 30.6155C156.762 31.8942 155.724 32.9273 154.45 32.9273C153.177 32.9273 152.139 31.8892 152.139 30.6155C152.139 29.3417 153.177 28.3036 154.45 28.3036C155.729 28.3036 156.762 29.3417 156.762 30.6155Z" fill="#0F131C"/>
<path d="M210.53 35.0334C210.53 36.3121 209.492 37.3452 208.218 37.3452C206.944 37.3452 205.906 36.3071 205.906 35.0334C205.906 33.7596 206.944 32.7216 208.218 32.7216C209.497 32.7216 210.53 33.7596 210.53 35.0334Z" fill="#0F131C"/>
<path d="M206.137 42.8564C206.137 44.1352 205.099 45.1682 203.825 45.1682C202.547 45.1682 201.514 44.1302 201.514 42.8564C201.514 41.5827 202.552 40.5446 203.825 40.5446C205.099 40.5446 206.137 41.5827 206.137 42.8564Z" fill="#0F131C"/>
<path d="M164.926 50.4338C164.926 51.7126 163.888 52.7456 162.615 52.7456C161.341 52.7456 160.303 51.7076 160.303 50.4338C160.303 49.1551 161.341 48.122 162.615 48.122C163.888 48.122 164.926 49.1601 164.926 50.4338Z" fill="#0F131C"/>
</g>
</g>
<defs>
<clipPath id="clip0_20_472">
<rect width="244" height="85" fill="white"/>
</clipPath>
<clipPath id="clip1_20_472">
<rect width="285" height="84.7548" fill="white"/>
</clipPath>
</defs>
</svg>
