<svg width="244" height="85" viewBox="0 0 244 85" fill="none" xmlns="http://www.w3.org/2000/svg">
<g clip-path="url(#clip0_20_482)">
<g clip-path="url(#clip1_20_482)">
<path d="M152.409 62.2928H97.7583L90.4719 69.5793H57.1035V70.3014H90.7728L98.0592 63.015H152.409V62.2928Z" fill="#0F131C"/>
<path d="M88.0002 64.6248H52.5858L35.2447 81.9659H10.7676V82.688H35.5456L52.8867 65.3469H88.0002V64.6248Z" fill="#0F131C"/>
<path d="M128.806 36.933H71.8228L31.2031 77.5528L31.7146 78.0643L72.1187 37.6552H128.806V36.933Z" fill="#0F131C"/>
<path d="M122.391 31.071H69.4504L27.2309 73.2954H2.3125V74.0175H27.5268L69.7513 31.7931H122.391V31.071Z" fill="#0F131C"/>
<path d="M192.337 47.7902H150.293L140.895 57.1929H62.3535V57.9151H141.191L150.594 48.5124H192.337V47.7902Z" fill="#0F131C"/>
<path d="M136.087 52.9053H68.4727V52.1832H136.087V52.9053Z" fill="#0F131C"/>
<path d="M205.898 20.0684H168.437L142.06 46.4411H72.8457V47.1683H142.361L168.733 20.7905H205.597L243.704 58.8978H282.689V58.1757H244L205.898 20.0684Z" fill="#0F131C"/>
<path d="M129.006 2.30113L128.494 2.81264L140.605 14.9233H210.732L249.019 53.2162H278.897V52.4891H249.32L211.032 14.2012H140.901L129.006 2.30113Z" fill="#0F131C"/>
<path d="M63.5923 12.7067H18.6348V13.4289H63.2964L70.6531 20.7906H157.654V20.0684H70.954L63.5923 12.7067Z" fill="#0F131C"/>
<path d="M58.7844 18.5388H29.127V19.261H58.4885L65.118 25.8905H147.18V25.1684H65.4189L58.7844 18.5388Z" fill="#0F131C"/>
<path d="M202.107 54.0237H154.451V54.7458H201.806L223.72 76.6554H269.57V75.9333H224.021L202.107 54.0237Z" fill="#0F131C"/>
<path d="M203.827 42.5046H156.492V41.7825H203.827V42.5046Z" fill="#0F131C"/>
<path d="M209.974 34.2051H162.609V34.9272H209.673L240.479 65.728H272.779V65.0059H240.78L209.974 34.2051Z" fill="#0F131C"/>
<path d="M208.469 49.3497L207.963 49.8613L229.276 71.1741H263.301V70.4519H229.572L208.469 49.3497Z" fill="#0F131C"/>
<path d="M8.45022 79.6489C6.97588 79.6489 5.77734 80.8475 5.77734 82.3218C5.77734 83.7962 6.97588 84.9997 8.45022 84.9997C9.92457 84.9997 11.1231 83.8012 11.1231 82.3268C11.1231 80.8525 9.92457 79.654 8.45022 79.654V79.6489ZM8.45022 84.2776C7.37204 84.2776 6.49947 83.4 6.49947 82.3268C6.49947 81.2537 7.37706 80.3761 8.45022 80.3761C9.52339 80.3761 10.401 81.2537 10.401 82.3268C10.401 83.405 9.52339 84.2776 8.45022 84.2776Z" fill="#0F131C"/>
<path d="M154.45 59.9761C152.976 59.9761 151.777 61.1746 151.777 62.649C151.777 64.1233 152.976 65.3219 154.45 65.3219C155.925 65.3219 157.123 64.1233 157.123 62.649C157.123 61.1746 155.925 59.9761 154.45 59.9761ZM154.45 64.6047C153.372 64.6047 152.499 63.7272 152.499 62.654C152.499 61.5808 153.377 60.7032 154.45 60.7032C155.523 60.7032 156.401 61.5808 156.401 62.654C156.401 63.7272 155.523 64.6047 154.45 64.6047Z" fill="#0F131C"/>
<path d="M154.175 39.4655C152.7 39.4655 151.502 40.664 151.502 42.1384C151.502 43.6127 152.7 44.8112 154.175 44.8112C155.649 44.8112 156.848 43.6127 156.848 42.1384C156.848 40.664 155.649 39.4655 154.175 39.4655ZM154.175 44.0941C153.097 44.0941 152.224 43.2165 152.224 42.1434C152.224 41.0652 153.102 40.1926 154.175 40.1926C155.248 40.1926 156.126 41.0702 156.126 42.1434C156.126 43.2165 155.248 44.0941 154.175 44.0941Z" fill="#0F131C"/>
<path d="M194.653 45.4784C193.179 45.4784 191.98 46.6769 191.98 48.1513C191.98 49.6256 193.179 50.8242 194.653 50.8242C196.128 50.8242 197.326 49.6256 197.326 48.1513C197.326 46.6769 196.128 45.4784 194.653 45.4784ZM194.653 50.107C193.575 50.107 192.703 49.2295 192.703 48.1563C192.703 47.0831 193.58 46.2055 194.653 46.2055C195.727 46.2055 196.604 47.0831 196.604 48.1563C196.604 49.2345 195.727 50.107 194.653 50.107Z" fill="#0F131C"/>
<path d="M124.702 28.7541C123.228 28.7541 122.029 29.9527 122.029 31.427C122.029 32.9014 123.228 34.0999 124.702 34.0999C126.177 34.0999 127.375 32.9014 127.375 31.427C127.375 29.9527 126.177 28.7541 124.702 28.7541ZM124.702 33.3828C123.624 33.3828 122.751 32.5052 122.751 31.432C122.751 30.3589 123.629 29.4813 124.702 29.4813C125.775 29.4813 126.653 30.3589 126.653 31.432C126.653 32.5052 125.775 33.3828 124.702 33.3828Z" fill="#0F131C"/>
<path d="M26.8135 16.2222C25.3392 16.2222 24.1406 17.4207 24.1406 18.8951C24.1406 20.3694 25.3392 21.568 26.8135 21.568C28.2878 21.568 29.4864 20.3694 29.4864 18.8951C29.4864 17.4207 28.2878 16.2222 26.8135 16.2222ZM26.8135 20.8508C25.7353 20.8508 24.8628 19.9733 24.8628 18.9001C24.8628 17.8269 25.7403 16.9493 26.8135 16.9493C27.8867 16.9493 28.7643 17.8269 28.7643 18.9001C28.7643 19.9733 27.8867 20.8508 26.8135 20.8508Z" fill="#0F131C"/>
<path d="M159.972 18.0927C158.497 18.0927 157.299 19.2912 157.299 20.7655C157.299 22.2399 158.497 23.4384 159.972 23.4384C161.446 23.4384 162.645 22.2399 162.645 20.7655C162.645 19.2912 161.446 18.0927 159.972 18.0927ZM159.972 22.7213C158.894 22.7213 158.021 21.8437 158.021 20.7706C158.021 19.6974 158.899 18.8198 159.972 18.8198C161.045 18.8198 161.922 19.6974 161.922 20.7706C161.922 21.8437 161.045 22.7213 159.972 22.7213Z" fill="#0F131C"/>
<path d="M66.1592 49.8662C64.6849 49.8662 63.4863 51.0647 63.4863 52.539C63.4863 54.0134 64.6849 55.2119 66.1592 55.2119C67.6335 55.2119 68.8321 54.0134 68.8321 52.539C68.8321 51.0647 67.6335 49.8662 66.1592 49.8662ZM66.1592 54.4948C65.081 54.4948 64.2085 53.6172 64.2085 52.5441C64.2085 51.4659 65.086 50.5933 66.1592 50.5933C67.2374 50.5933 68.11 51.4709 68.11 52.5441C68.11 53.6172 67.2324 54.4948 66.1592 54.4948Z" fill="#0F131C"/>
<path d="M57.1041 69.9404C57.1041 68.6616 56.066 67.6285 54.7923 67.6285C53.5185 67.6285 52.4805 68.6666 52.4805 69.9404C52.4805 71.2141 53.5185 72.2522 54.7923 72.2522C56.0711 72.2522 57.1041 71.2141 57.1041 69.9404Z" fill="#0F131C"/>
<path d="M33.7701 77.6983C33.7701 76.4195 32.7321 75.3865 31.4583 75.3865C30.1845 75.3865 29.1465 76.4245 29.1465 77.6983C29.1465 78.9721 30.1845 80.0101 31.4583 80.0101C32.7321 80.0101 33.7701 78.9721 33.7701 77.6983Z" fill="#0F131C"/>
<path d="M90.3111 64.9858C90.3111 63.707 89.2731 62.6739 87.9993 62.6739C86.7205 62.6739 85.6875 63.712 85.6875 64.9858C85.6875 66.2645 86.7256 67.2976 87.9993 67.2976C89.2731 67.2976 90.3111 66.2595 90.3111 64.9858Z" fill="#0F131C"/>
<path d="M64.6666 57.554C64.6666 56.2752 63.6285 55.2422 62.3548 55.2422C61.076 55.2422 60.043 56.2802 60.043 57.554C60.043 58.8328 61.081 59.8658 62.3548 59.8658C63.6285 59.8658 64.6666 58.8277 64.6666 57.554Z" fill="#0F131C"/>
<path d="M75.1568 46.7921C75.1568 45.5134 74.1188 44.4803 72.845 44.4803C71.5713 44.4803 70.5332 45.5184 70.5332 46.7921C70.5332 48.0659 71.5713 49.1039 72.845 49.1039C74.1188 49.1039 75.1568 48.0659 75.1568 46.7921Z" fill="#0F131C"/>
<path d="M4.62864 73.6565C4.62864 72.3777 3.59058 71.3446 2.31683 71.3446C1.04307 71.3446 0 72.3777 0 73.6565C0 74.9352 1.03806 75.9683 2.31181 75.9683C3.59058 75.9683 4.62363 74.9302 4.62363 73.6565H4.62864Z" fill="#0F131C"/>
<path d="M131.116 37.2942C131.116 36.0155 130.078 34.9824 128.804 34.9824C127.525 34.9824 126.492 36.0205 126.492 37.2942C126.492 38.573 127.53 39.606 128.804 39.606C130.078 39.606 131.116 38.568 131.116 37.2942Z" fill="#0F131C"/>
<path d="M20.9459 13.0677C20.9459 11.7889 19.9078 10.7559 18.6341 10.7559C17.3553 10.7559 16.3223 11.794 16.3223 13.0677C16.3223 14.3415 17.3603 15.3795 18.6341 15.3795C19.9078 15.3795 20.9459 14.3415 20.9459 13.0677Z" fill="#0F131C"/>
<path d="M147.179 23.0824C148.456 23.0824 149.491 24.1175 149.491 25.3943C149.491 26.671 148.456 27.7061 147.179 27.7061C145.902 27.7061 144.867 26.671 144.867 25.3943C144.867 24.1175 145.902 23.0824 147.179 23.0824Z" fill="#0F131C"/>
<path d="M131.061 2.55691C131.061 1.27815 130.023 0.2451 128.749 0.2451C127.471 0.2451 126.438 1.28316 126.438 2.55691C126.438 3.83067 127.476 4.86873 128.749 4.86873C130.023 4.86873 131.061 3.83067 131.061 2.55691Z" fill="#0F131C"/>
<path d="M138.403 52.0678C138.403 50.789 137.365 49.756 136.091 49.756C134.817 49.756 133.779 50.794 133.779 52.0678C133.779 53.3466 134.817 54.3796 136.091 54.3796C137.365 54.3796 138.403 53.3416 138.403 52.0678Z" fill="#0F131C"/>
<path d="M156.762 54.3846C156.762 53.1058 155.724 52.0727 154.45 52.0727C153.177 52.0727 152.139 53.1108 152.139 54.3846C152.139 55.6583 153.177 56.6964 154.45 56.6964C155.729 56.6964 156.762 55.6583 156.762 54.3846Z" fill="#0F131C"/>
<path d="M210.53 49.9667C210.53 48.6879 209.492 47.6548 208.218 47.6548C206.944 47.6548 205.906 48.6929 205.906 49.9667C205.906 51.2404 206.944 52.2785 208.218 52.2785C209.497 52.2785 210.53 51.2404 210.53 49.9667Z" fill="#0F131C"/>
<path d="M206.137 42.1436C206.137 40.8648 205.099 39.8317 203.825 39.8317C202.547 39.8317 201.514 40.8698 201.514 42.1436C201.514 43.4173 202.552 44.4554 203.825 44.4554C205.099 44.4554 206.137 43.4173 206.137 42.1436Z" fill="#0F131C"/>
<path d="M164.926 34.5662C164.926 33.2874 163.888 32.2544 162.615 32.2544C161.341 32.2544 160.303 33.2924 160.303 34.5662C160.303 35.845 161.341 36.878 162.615 36.878C163.888 36.878 164.926 35.8399 164.926 34.5662Z" fill="#0F131C"/>
</g>
</g>
<defs>
<clipPath id="clip0_20_482">
<rect width="244" height="85" fill="white" transform="matrix(1 0 0 -1 0 85)"/>
</clipPath>
<clipPath id="clip1_20_482">
<rect width="285" height="84.7548" fill="white" transform="matrix(1 0 0 -1 0 85)"/>
</clipPath>
</defs>
</svg>
