<svg width="373" height="45" viewBox="0 0 373 45" fill="none" xmlns="http://www.w3.org/2000/svg">
<path d="M0.314681 1.17711H350.554C362.546 1.17711 372.267 10.8983 372.267 22.8901C372.267 34.8818 362.546 44.603 350.554 44.603H0.314681V1.17711Z" stroke="#868E96" stroke-width="0.629361"/>
<rect y="0.862427" width="2.34158" height="44.0553" rx="1.17079" fill="#A6282D"/>
<path d="M19.7611 11.1015V11.7976H16.7301V13.8947H19.184V14.5643H16.7301V16.7186H19.7611V17.4147H15.8711V11.1015H19.7611ZM20.8674 17.4147V12.9519H21.3344C21.446 12.9519 21.5165 13.0062 21.5459 13.1149L21.6031 13.5731C21.7676 13.3704 21.9512 13.2045 22.1538 13.0752C22.3594 12.946 22.5973 12.8814 22.8675 12.8814C23.17 12.8814 23.4138 12.9651 23.5988 13.1325C23.7868 13.2999 23.9219 13.5261 24.0041 13.8109C24.0658 13.6494 24.1466 13.5099 24.2464 13.3924C24.3492 13.2749 24.4638 13.178 24.5901 13.1017C24.7164 13.0253 24.85 12.9695 24.991 12.9342C25.1349 12.899 25.2803 12.8814 25.4271 12.8814C25.6621 12.8814 25.8706 12.9196 26.0527 12.9959C26.2377 13.0694 26.3934 13.178 26.5197 13.3219C26.6489 13.4658 26.7473 13.6435 26.8149 13.855C26.8824 14.0635 26.9162 14.3029 26.9162 14.5731V17.4147H26.132V14.5731C26.132 14.2236 26.0557 13.9593 25.9029 13.7801C25.7502 13.598 25.5285 13.507 25.2377 13.507C25.1085 13.507 24.9851 13.5305 24.8676 13.5775C24.7531 13.6215 24.6518 13.6876 24.5636 13.7757C24.4755 13.8638 24.405 13.9754 24.3522 14.1105C24.3023 14.2427 24.2773 14.3969 24.2773 14.5731V17.4147H23.4931V14.5731C23.4931 14.2148 23.4211 13.9475 23.2772 13.7713C23.1333 13.5951 22.9233 13.507 22.6472 13.507C22.4534 13.507 22.2728 13.5598 22.1054 13.6656C21.9409 13.7684 21.7896 13.9093 21.6516 14.0885V17.4147H20.8674ZM31.3815 17.4147H31.0335C30.9571 17.4147 30.8955 17.4029 30.8485 17.3794C30.8015 17.3559 30.7706 17.306 30.756 17.2296L30.6679 16.8155C30.5504 16.9213 30.4358 17.0167 30.3242 17.1019C30.2126 17.1841 30.0951 17.2546 29.9718 17.3133C29.8484 17.3691 29.7163 17.4117 29.5753 17.4411C29.4372 17.4705 29.283 17.4852 29.1127 17.4852C28.9394 17.4852 28.7764 17.4617 28.6237 17.4147C28.4739 17.3647 28.3432 17.2913 28.2316 17.1944C28.12 17.0975 28.0304 16.9756 27.9629 16.8287C27.8982 16.6789 27.8659 16.5027 27.8659 16.3001C27.8659 16.1239 27.9144 15.955 28.0113 15.7934C28.1082 15.629 28.2639 15.4836 28.4783 15.3573C28.6956 15.231 28.9791 15.1282 29.3286 15.0489C29.6781 14.9667 30.1054 14.9197 30.6106 14.9079V14.5599C30.6106 14.2133 30.5357 13.9519 30.3859 13.7757C30.239 13.5965 30.0202 13.507 29.7295 13.507C29.5386 13.507 29.377 13.5319 29.2449 13.5819C29.1156 13.6289 29.0026 13.6832 28.9056 13.7449C28.8117 13.8036 28.7294 13.8579 28.6589 13.9079C28.5914 13.9549 28.5238 13.9784 28.4563 13.9784C28.4034 13.9784 28.3564 13.9651 28.3153 13.9387C28.2771 13.9093 28.2463 13.8741 28.2228 13.833L28.0818 13.5819C28.3285 13.344 28.5943 13.1663 28.8792 13.0488C29.1641 12.9313 29.4798 12.8726 29.8264 12.8726C30.076 12.8726 30.2978 12.9137 30.4916 12.9959C30.6855 13.0782 30.8485 13.1927 30.9806 13.3396C31.1128 13.4864 31.2127 13.6641 31.2802 13.8726C31.3478 14.0812 31.3815 14.3102 31.3815 14.5599V17.4147ZM29.3462 16.9345C29.4842 16.9345 29.6105 16.9213 29.7251 16.8948C29.8396 16.8655 29.9468 16.8258 30.0467 16.7759C30.1495 16.723 30.2464 16.6599 30.3374 16.5864C30.4314 16.513 30.5225 16.4293 30.6106 16.3353V15.4058C30.2493 15.4175 29.9424 15.4469 29.6898 15.4939C29.4372 15.5379 29.2316 15.5967 29.073 15.6701C28.9145 15.7435 28.7984 15.8302 28.725 15.93C28.6545 16.0299 28.6193 16.1415 28.6193 16.2648C28.6193 16.3823 28.6384 16.4836 28.6766 16.5688C28.7147 16.654 28.7661 16.7245 28.8307 16.7803C28.8954 16.8331 28.9717 16.8728 29.0598 16.8992C29.1479 16.9227 29.2434 16.9345 29.3462 16.9345ZM33.4419 12.9519V17.4147H32.6577V12.9519H33.4419ZM33.6181 11.5509C33.6181 11.6273 33.602 11.6992 33.5697 11.7668C33.5403 11.8314 33.4992 11.8901 33.4463 11.943C33.3964 11.9929 33.3376 12.0326 33.2701 12.062C33.2025 12.0913 33.1306 12.106 33.0542 12.106C32.9778 12.106 32.9059 12.0913 32.8383 12.062C32.7737 12.0326 32.715 11.9929 32.6621 11.943C32.6122 11.8901 32.5725 11.8314 32.5432 11.7668C32.5138 11.6992 32.4991 11.6273 32.4991 11.5509C32.4991 11.4746 32.5138 11.4026 32.5432 11.335C32.5725 11.2646 32.6122 11.2043 32.6621 11.1544C32.715 11.1015 32.7737 11.0604 32.8383 11.0311C32.9059 11.0017 32.9778 10.987 33.0542 10.987C33.1306 10.987 33.2025 11.0017 33.2701 11.0311C33.3376 11.0604 33.3964 11.1015 33.4463 11.1544C33.4992 11.2043 33.5403 11.2646 33.5697 11.335C33.602 11.4026 33.6181 11.4746 33.6181 11.5509ZM35.6963 10.9253V17.4147H34.9121V10.9253H35.6963ZM44.0996 17.4147H43.4387C43.3624 17.4147 43.3007 17.3956 43.2537 17.3574C43.2067 17.3192 43.1715 17.2708 43.148 17.212L42.5576 15.6877H39.7249L39.1345 17.212C39.114 17.2649 39.0787 17.3119 39.0288 17.353C38.9789 17.3941 38.9172 17.4147 38.8438 17.4147H38.1829L40.7073 11.1015H41.5752L44.0996 17.4147ZM39.9628 15.0709H42.3197L41.3285 12.5025C41.2639 12.3439 41.2007 12.1457 41.139 11.9078C41.1067 12.0282 41.0744 12.1398 41.0421 12.2426C41.0127 12.3424 40.9834 12.4306 40.954 12.5069L39.9628 15.0709ZM47.912 17.4147C47.8004 17.4147 47.7299 17.3603 47.7005 17.2517L47.63 16.7098C47.4391 16.9418 47.2203 17.1283 46.9736 17.2693C46.7298 17.4073 46.4494 17.4764 46.1322 17.4764C45.8766 17.4764 45.6446 17.4279 45.4361 17.331C45.2276 17.2311 45.0499 17.0857 44.903 16.8948C44.7562 16.7039 44.6431 16.466 44.5638 16.1811C44.4845 15.8962 44.4448 15.5688 44.4448 15.1987C44.4448 14.8697 44.4889 14.5643 44.577 14.2823C44.6651 13.9975 44.7914 13.7507 44.9559 13.5422C45.1233 13.3337 45.3259 13.1707 45.5638 13.0532C45.8017 12.9328 46.0719 12.8726 46.3745 12.8726C46.6476 12.8726 46.8811 12.9196 47.0749 13.0135C47.2688 13.1046 47.4421 13.2338 47.5948 13.4012V10.9253H48.379V17.4147H47.912ZM46.3921 16.842C46.6476 16.842 46.8708 16.7832 47.0617 16.6657C47.2556 16.5483 47.4333 16.3823 47.5948 16.1679V14.0092C47.4509 13.8154 47.2923 13.6803 47.119 13.6039C46.9486 13.5246 46.7592 13.4849 46.5507 13.4849C46.1336 13.4849 45.8135 13.6333 45.5903 13.9299C45.3671 14.2265 45.2555 14.6495 45.2555 15.1987C45.2555 15.4895 45.2804 15.7391 45.3303 15.9476C45.3803 16.1532 45.4537 16.3236 45.5506 16.4587C45.6475 16.5908 45.7665 16.6878 45.9075 16.7494C46.0484 16.8111 46.21 16.842 46.3921 16.842ZM52.8338 17.4147C52.7222 17.4147 52.6517 17.3603 52.6223 17.2517L52.5518 16.7098C52.3609 16.9418 52.1421 17.1283 51.8954 17.2693C51.6516 17.4073 51.3712 17.4764 51.054 17.4764C50.7984 17.4764 50.5664 17.4279 50.3579 17.331C50.1494 17.2311 49.9717 17.0857 49.8248 16.8948C49.678 16.7039 49.5649 16.466 49.4856 16.1811C49.4063 15.8962 49.3666 15.5688 49.3666 15.1987C49.3666 14.8697 49.4107 14.5643 49.4988 14.2823C49.5869 13.9975 49.7132 13.7507 49.8777 13.5422C50.0451 13.3337 50.2477 13.1707 50.4856 13.0532C50.7235 12.9328 50.9937 12.8726 51.2963 12.8726C51.5694 12.8726 51.8029 12.9196 51.9967 13.0135C52.1906 13.1046 52.3639 13.2338 52.5166 13.4012V10.9253H53.3008V17.4147H52.8338ZM51.3139 16.842C51.5694 16.842 51.7926 16.7832 51.9835 16.6657C52.1774 16.5483 52.3551 16.3823 52.5166 16.1679V14.0092C52.3727 13.8154 52.2141 13.6803 52.0408 13.6039C51.8704 13.5246 51.681 13.4849 51.4725 13.4849C51.0554 13.4849 50.7353 13.6333 50.5121 13.9299C50.2889 14.2265 50.1773 14.6495 50.1773 15.1987C50.1773 15.4895 50.2022 15.7391 50.2522 15.9476C50.3021 16.1532 50.3755 16.3236 50.4724 16.4587C50.5694 16.5908 50.6883 16.6878 50.8293 16.7494C50.9703 16.8111 51.1318 16.842 51.3139 16.842ZM54.6145 17.4147V12.9519H55.0638C55.149 12.9519 55.2077 12.968 55.24 13.0003C55.2723 13.0326 55.2944 13.0884 55.3061 13.1677L55.359 13.8638C55.5117 13.5525 55.6997 13.3102 55.9229 13.1369C56.149 12.9607 56.4134 12.8726 56.7159 12.8726C56.8392 12.8726 56.9509 12.8873 57.0507 12.9166C57.1506 12.9431 57.2431 12.9812 57.3283 13.0312L57.2269 13.6171C57.2064 13.6905 57.1608 13.7272 57.0904 13.7272C57.0492 13.7272 56.9861 13.714 56.9009 13.6876C56.8157 13.6582 56.6968 13.6435 56.5441 13.6435C56.2709 13.6435 56.0418 13.7228 55.8568 13.8814C55.6747 14.04 55.522 14.2706 55.3986 14.5731V17.4147H54.6145ZM59.9347 12.8814C60.202 12.8814 60.4487 12.9269 60.6749 13.018C60.901 13.1061 61.0963 13.2353 61.2608 13.4056C61.4253 13.5731 61.553 13.7816 61.6441 14.0312C61.7381 14.2779 61.7851 14.5599 61.7851 14.8771C61.7851 15.0004 61.7719 15.0827 61.7454 15.1238C61.719 15.1649 61.6691 15.1855 61.5956 15.1855H58.6263C58.6322 15.4674 58.6704 15.7127 58.7408 15.9212C58.8113 16.1297 58.9083 16.3045 59.0316 16.4455C59.155 16.5835 59.3018 16.6878 59.4722 16.7582C59.6425 16.8258 59.8334 16.8596 60.0449 16.8596C60.2417 16.8596 60.4105 16.8375 60.5515 16.7935C60.6954 16.7465 60.8188 16.6966 60.9216 16.6437C61.0244 16.5908 61.1096 16.5424 61.1771 16.4983C61.2476 16.4513 61.3078 16.4278 61.3577 16.4278C61.4223 16.4278 61.4723 16.4528 61.5075 16.5027L61.7278 16.7891C61.6309 16.9066 61.5149 17.0094 61.3798 17.0975C61.2447 17.1826 61.0993 17.2531 60.9436 17.3089C60.7909 17.3647 60.6323 17.4059 60.4678 17.4323C60.3033 17.4617 60.1403 17.4764 59.9788 17.4764C59.6704 17.4764 59.3855 17.425 59.1241 17.3222C58.8657 17.2164 58.641 17.0637 58.4501 16.864C58.2621 16.6613 58.1153 16.4117 58.0095 16.115C57.9038 15.8184 57.8509 15.4777 57.8509 15.093C57.8509 14.7816 57.8979 14.4909 57.9919 14.2207C58.0888 13.9505 58.2269 13.717 58.406 13.5202C58.5852 13.3205 58.804 13.1648 59.0625 13.0532C59.3209 12.9387 59.6117 12.8814 59.9347 12.8814ZM59.9524 13.4585C59.5735 13.4585 59.2754 13.5686 59.058 13.7889C58.8407 14.0063 58.7056 14.3088 58.6527 14.6965H61.0802C61.0802 14.5144 61.0552 14.3484 61.0053 14.1986C60.9554 14.0459 60.8819 13.9152 60.785 13.8065C60.6881 13.6949 60.5691 13.6098 60.4282 13.551C60.2901 13.4893 60.1315 13.4585 59.9524 13.4585ZM65.344 13.6876C65.3087 13.7522 65.2544 13.7845 65.181 13.7845C65.1369 13.7845 65.087 13.7684 65.0312 13.7361C64.9754 13.7037 64.9064 13.6685 64.8241 13.6303C64.7448 13.5892 64.6494 13.5525 64.5378 13.5202C64.4262 13.4849 64.294 13.4673 64.1413 13.4673C64.0091 13.4673 63.8902 13.4849 63.7844 13.5202C63.6787 13.5525 63.5876 13.598 63.5113 13.6568C63.4379 13.7155 63.3806 13.7845 63.3395 13.8638C63.3013 13.9402 63.2822 14.0239 63.2822 14.1149C63.2822 14.2295 63.3145 14.3249 63.3791 14.4013C63.4467 14.4777 63.5348 14.5437 63.6434 14.5995C63.7521 14.6553 63.8755 14.7053 64.0135 14.7493C64.1515 14.7904 64.2925 14.836 64.4364 14.8859C64.5833 14.9329 64.7257 14.9858 64.8638 15.0445C65.0018 15.1032 65.1252 15.1767 65.2338 15.2648C65.3425 15.3529 65.4292 15.4616 65.4938 15.5908C65.5613 15.7171 65.5951 15.8698 65.5951 16.049C65.5951 16.2546 65.5584 16.4455 65.485 16.6217C65.4115 16.795 65.3029 16.9462 65.1589 17.0754C65.015 17.2017 64.8388 17.3016 64.6303 17.375C64.4218 17.4484 64.1809 17.4852 63.9078 17.4852C63.5965 17.4852 63.3145 17.4352 63.0619 17.3354C62.8093 17.2326 62.5949 17.1019 62.4187 16.9433L62.6037 16.6437C62.6272 16.6055 62.6551 16.5762 62.6874 16.5556C62.7198 16.535 62.7623 16.5248 62.8152 16.5248C62.8681 16.5248 62.9239 16.5453 62.9826 16.5864C63.0414 16.6276 63.1118 16.6731 63.1941 16.723C63.2793 16.7729 63.3806 16.8185 63.4981 16.8596C63.6185 16.9007 63.7683 16.9213 63.9474 16.9213C64.1002 16.9213 64.2338 16.9022 64.3483 16.864C64.4629 16.8229 64.5583 16.7685 64.6347 16.701C64.7111 16.6334 64.7669 16.5556 64.8021 16.4675C64.8403 16.3794 64.8594 16.2854 64.8594 16.1855C64.8594 16.0622 64.8256 15.9608 64.758 15.8815C64.6934 15.7993 64.6068 15.7303 64.4981 15.6745C64.3894 15.6157 64.2646 15.5658 64.1236 15.5247C63.9856 15.4806 63.8432 15.4351 63.6963 15.3881C63.5524 15.3411 63.41 15.2883 63.269 15.2295C63.1309 15.1679 63.0076 15.0915 62.8989 15.0004C62.7902 14.9094 62.7021 14.7978 62.6346 14.6656C62.57 14.5305 62.5377 14.3675 62.5377 14.1766C62.5377 14.0063 62.5729 13.8433 62.6434 13.6876C62.7139 13.529 62.8167 13.391 62.9518 13.2735C63.0869 13.1531 63.2528 13.0576 63.4496 12.9871C63.6464 12.9166 63.8711 12.8814 64.1236 12.8814C64.4173 12.8814 64.6802 12.9284 64.9122 13.0224C65.1472 13.1134 65.3499 13.2397 65.5202 13.4012L65.344 13.6876ZM69.1644 13.6876C69.1292 13.7522 69.0748 13.7845 69.0014 13.7845C68.9573 13.7845 68.9074 13.7684 68.8516 13.7361C68.7958 13.7037 68.7268 13.6685 68.6445 13.6303C68.5652 13.5892 68.4698 13.5525 68.3582 13.5202C68.2466 13.4849 68.1144 13.4673 67.9617 13.4673C67.8295 13.4673 67.7106 13.4849 67.6048 13.5202C67.4991 13.5525 67.4081 13.598 67.3317 13.6568C67.2583 13.7155 67.201 13.7845 67.1599 13.8638C67.1217 13.9402 67.1026 14.0239 67.1026 14.1149C67.1026 14.2295 67.1349 14.3249 67.1995 14.4013C67.2671 14.4777 67.3552 14.5437 67.4639 14.5995C67.5725 14.6553 67.6959 14.7053 67.8339 14.7493C67.972 14.7904 68.1129 14.836 68.2569 14.8859C68.4037 14.9329 68.5462 14.9858 68.6842 15.0445C68.8222 15.1032 68.9456 15.1767 69.0543 15.2648C69.1629 15.3529 69.2496 15.4616 69.3142 15.5908C69.3817 15.7171 69.4155 15.8698 69.4155 16.049C69.4155 16.2546 69.3788 16.4455 69.3054 16.6217C69.232 16.795 69.1233 16.9462 68.9794 17.0754C68.8355 17.2017 68.6592 17.3016 68.4507 17.375C68.2422 17.4484 68.0013 17.4852 67.7282 17.4852C67.4169 17.4852 67.1349 17.4352 66.8823 17.3354C66.6298 17.2326 66.4153 17.1019 66.2391 16.9433L66.4242 16.6437C66.4477 16.6055 66.4756 16.5762 66.5079 16.5556C66.5402 16.535 66.5828 16.5248 66.6356 16.5248C66.6885 16.5248 66.7443 16.5453 66.803 16.5864C66.8618 16.6276 66.9323 16.6731 67.0145 16.723C67.0997 16.7729 67.201 16.8185 67.3185 16.8596C67.4389 16.9007 67.5887 16.9213 67.7678 16.9213C67.9206 16.9213 68.0542 16.9022 68.1687 16.864C68.2833 16.8229 68.3787 16.7685 68.4551 16.701C68.5315 16.6334 68.5873 16.5556 68.6225 16.4675C68.6607 16.3794 68.6798 16.2854 68.6798 16.1855C68.6798 16.0622 68.646 15.9608 68.5785 15.8815C68.5138 15.7993 68.4272 15.7303 68.3185 15.6745C68.2099 15.6157 68.085 15.5658 67.9441 15.5247C67.806 15.4806 67.6636 15.4351 67.5167 15.3881C67.3728 15.3411 67.2304 15.2883 67.0894 15.2295C66.9514 15.1679 66.828 15.0915 66.7193 15.0004C66.6107 14.9094 66.5225 14.7978 66.455 14.6656C66.3904 14.5305 66.3581 14.3675 66.3581 14.1766C66.3581 14.0063 66.3933 13.8433 66.4638 13.6876C66.5343 13.529 66.6371 13.391 66.7722 13.2735C66.9073 13.1531 67.0732 13.0576 67.27 12.9871C67.4668 12.9166 67.6915 12.8814 67.9441 12.8814C68.2378 12.8814 68.5006 12.9284 68.7327 13.0224C68.9676 13.1134 69.1703 13.2397 69.3406 13.4012L69.1644 13.6876Z" fill="white"/>
<path d="M16.158 33.6312V28.7543L15.5236 28.6807C15.4443 28.6618 15.3783 28.6335 15.3254 28.5957C15.2763 28.5542 15.2518 28.4956 15.2518 28.4201V28.0066H16.158V27.4515C16.158 27.123 16.2034 26.8322 16.294 26.5792C16.3884 26.3225 16.5206 26.1072 16.6905 25.9335C16.8642 25.756 17.0719 25.622 17.3136 25.5313C17.5552 25.4407 17.8271 25.3954 18.1292 25.3954C18.386 25.3954 18.6239 25.4332 18.8429 25.5087L18.8202 26.0128C18.8165 26.0883 18.7844 26.1336 18.724 26.1487C18.6635 26.1639 18.5786 26.1714 18.4691 26.1714H18.2935C18.1198 26.1714 17.9612 26.1941 17.8177 26.2394C17.678 26.2847 17.5571 26.3583 17.4552 26.4603C17.3532 26.5622 17.2739 26.6963 17.2173 26.8624C17.1644 27.0286 17.138 27.2344 17.138 27.4798V28.0066H18.7976V28.7373H17.1719V33.6312H16.158ZM22.0196 27.8027C22.3632 27.8027 22.6804 27.8612 22.9712 27.9783C23.2619 28.0916 23.513 28.2577 23.7245 28.4768C23.936 28.692 24.1002 28.9601 24.2173 29.2811C24.3381 29.5983 24.3986 29.9608 24.3986 30.3686C24.3986 30.5272 24.3816 30.6329 24.3476 30.6858C24.3136 30.7387 24.2494 30.7651 24.155 30.7651H20.3373C20.3448 31.1276 20.3939 31.4429 20.4846 31.711C20.5752 31.9792 20.6998 32.2038 20.8584 32.3851C21.017 32.5626 21.2058 32.6966 21.4248 32.7873C21.6438 32.8741 21.8893 32.9175 22.1612 32.9175C22.4142 32.9175 22.6313 32.8892 22.8126 32.8326C22.9976 32.7721 23.1562 32.708 23.2884 32.64C23.4205 32.572 23.53 32.5097 23.6169 32.4531C23.7075 32.3926 23.7849 32.3624 23.8491 32.3624C23.9322 32.3624 23.9964 32.3945 24.0417 32.4587L24.3249 32.8269C24.2003 32.9779 24.0512 33.1101 23.8774 33.2234C23.7037 33.3329 23.5168 33.4235 23.3167 33.4953C23.1203 33.567 22.9164 33.6199 22.7049 33.6539C22.4935 33.6916 22.2839 33.7105 22.0762 33.7105C21.6797 33.7105 21.3134 33.6444 20.9773 33.5123C20.645 33.3763 20.3562 33.18 20.1107 32.9232C19.869 32.6626 19.6802 32.3417 19.5443 31.9603C19.4084 31.5789 19.3404 31.1408 19.3404 30.6462C19.3404 30.2459 19.4008 29.872 19.5216 29.5246C19.6462 29.1772 19.8237 28.877 20.0541 28.624C20.2844 28.3672 20.5657 28.1671 20.898 28.0236C21.2304 27.8763 21.6042 27.8027 22.0196 27.8027ZM22.0422 28.5447C21.5551 28.5447 21.1718 28.6863 20.8924 28.9695C20.6129 29.249 20.4392 29.6379 20.3713 30.1364H23.4923C23.4923 29.9023 23.4602 29.6889 23.396 29.4963C23.3318 29.3 23.2374 29.1319 23.1128 28.9922C22.9882 28.8487 22.8352 28.7392 22.654 28.6637C22.4765 28.5844 22.2726 28.5447 22.0422 28.5447ZM26.8106 25.2878V33.6312H25.8023V25.2878H26.8106ZM29.7091 27.8933V33.6312H28.7008V27.8933H29.7091ZM29.9356 26.0921C29.9356 26.1903 29.9149 26.2828 29.8733 26.3697C29.8356 26.4527 29.7827 26.5283 29.7147 26.5962C29.6505 26.6604 29.575 26.7114 29.4882 26.7492C29.4013 26.7869 29.3088 26.8058 29.2106 26.8058C29.1124 26.8058 29.0199 26.7869 28.9331 26.7492C28.85 26.7114 28.7745 26.6604 28.7065 26.5962C28.6423 26.5283 28.5913 26.4527 28.5536 26.3697C28.5158 26.2828 28.4969 26.1903 28.4969 26.0921C28.4969 25.9939 28.5158 25.9014 28.5536 25.8146C28.5913 25.7239 28.6423 25.6465 28.7065 25.5823C28.7745 25.5144 28.85 25.4615 28.9331 25.4237C29.0199 25.386 29.1124 25.3671 29.2106 25.3671C29.3088 25.3671 29.4013 25.386 29.4882 25.4237C29.575 25.4615 29.6505 25.5144 29.7147 25.5823C29.7827 25.6465 29.8356 25.7239 29.8733 25.8146C29.9149 25.9014 29.9356 25.9939 29.9356 26.0921ZM35.4 28.9129C35.3698 28.9544 35.3396 28.9865 35.3094 29.0092C35.2792 29.0319 35.2358 29.0432 35.1791 29.0432C35.1225 29.0432 35.0602 29.0205 34.9922 28.9752C34.928 28.9261 34.8449 28.8733 34.743 28.8166C34.641 28.76 34.5164 28.709 34.3691 28.6637C34.2257 28.6146 34.0482 28.59 33.8367 28.59C33.5573 28.59 33.3099 28.641 33.0947 28.743C32.8794 28.8412 32.6982 28.9847 32.5509 29.1735C32.4074 29.3623 32.2979 29.5907 32.2224 29.8588C32.1506 30.1269 32.1148 30.4271 32.1148 30.7594C32.1148 31.1069 32.1544 31.4165 32.2337 31.6884C32.313 31.9565 32.4244 32.1831 32.5679 32.3681C32.7114 32.5494 32.8851 32.6891 33.089 32.7873C33.2967 32.8817 33.5289 32.9289 33.7857 32.9289C34.0312 32.9289 34.2332 32.9005 34.3918 32.8439C34.5504 32.7835 34.6826 32.7174 34.7883 32.6456C34.894 32.5739 34.9809 32.5097 35.0489 32.4531C35.1168 32.3926 35.1848 32.3624 35.2528 32.3624C35.3396 32.3624 35.4038 32.3945 35.4454 32.4587L35.7286 32.8269C35.4793 33.1328 35.1678 33.3575 34.794 33.5009C34.4201 33.6407 34.0255 33.7105 33.6101 33.7105C33.2514 33.7105 32.9172 33.6444 32.6076 33.5123C32.3017 33.3801 32.0355 33.1894 31.8089 32.9402C31.5823 32.6872 31.403 32.3775 31.2708 32.0112C31.1424 31.645 31.0782 31.2277 31.0782 30.7594C31.0782 30.3327 31.1367 29.9381 31.2538 29.5756C31.3746 29.2131 31.5483 28.9016 31.7749 28.641C32.0053 28.3767 32.2885 28.1709 32.6246 28.0236C32.9606 27.8763 33.3458 27.8027 33.7801 27.8027C34.1803 27.8027 34.5353 27.8688 34.8449 28.001C35.1546 28.1293 35.4284 28.3125 35.6663 28.5504L35.4 28.9129ZM37.8957 27.8933V33.6312H36.8874V27.8933H37.8957ZM38.1222 26.0921C38.1222 26.1903 38.1015 26.2828 38.0599 26.3697C38.0222 26.4527 37.9693 26.5283 37.9013 26.5962C37.8371 26.6604 37.7616 26.7114 37.6748 26.7492C37.5879 26.7869 37.4954 26.8058 37.3972 26.8058C37.299 26.8058 37.2065 26.7869 37.1197 26.7492C37.0366 26.7114 36.9611 26.6604 36.8931 26.5962C36.8289 26.5283 36.7779 26.4527 36.7402 26.3697C36.7024 26.2828 36.6835 26.1903 36.6835 26.0921C36.6835 25.9939 36.7024 25.9014 36.7402 25.8146C36.7779 25.7239 36.8289 25.6465 36.8931 25.5823C36.9611 25.5144 37.0366 25.4615 37.1197 25.4237C37.2065 25.386 37.299 25.3671 37.3972 25.3671C37.4954 25.3671 37.5879 25.386 37.6748 25.4237C37.7616 25.4615 37.8371 25.5144 37.9013 25.5823C37.9693 25.6465 38.0222 25.7239 38.0599 25.8146C38.1015 25.9014 38.1222 25.9939 38.1222 26.0921ZM41.4116 33.7219C40.9584 33.7219 40.6091 33.5954 40.3637 33.3423C40.122 33.0893 40.0012 32.7249 40.0012 32.2491V28.7373H39.3101C39.2497 28.7373 39.1987 28.7203 39.1572 28.6863C39.1157 28.6486 39.0949 28.5919 39.0949 28.5164V28.1142L40.0352 27.9953L40.2674 26.2224C40.275 26.1657 40.2995 26.1204 40.341 26.0864C40.3826 26.0487 40.4354 26.0298 40.4996 26.0298H41.0094V28.0066H42.6521V28.7373H41.0094V32.1812C41.0094 32.4229 41.068 32.6022 41.185 32.7193C41.3021 32.8363 41.4531 32.8949 41.6382 32.8949C41.7439 32.8949 41.8345 32.8817 41.91 32.8552C41.9893 32.825 42.0573 32.7929 42.114 32.7589C42.1706 32.7249 42.2178 32.6947 42.2556 32.6683C42.2971 32.6381 42.333 32.623 42.3632 32.623C42.416 32.623 42.4632 32.6551 42.5048 32.7193L42.7993 33.2007C42.6256 33.3631 42.416 33.4915 42.1706 33.5859C41.9251 33.6765 41.6721 33.7219 41.4116 33.7219ZM45.581 35.3248C45.547 35.4004 45.5036 35.4608 45.4507 35.5061C45.4016 35.5514 45.3242 35.5741 45.2185 35.5741H44.4708L45.5187 33.297L43.151 27.8933H44.0233C44.1102 27.8933 44.1782 27.916 44.2272 27.9613C44.2763 28.0028 44.3122 28.05 44.3349 28.1029L45.8699 31.7167C45.9039 31.7998 45.9322 31.8829 45.9548 31.9659C45.9813 32.049 46.0039 32.134 46.0228 32.2208C46.0492 32.134 46.0757 32.049 46.1021 31.9659C46.1285 31.8829 46.1588 31.7979 46.1927 31.711L47.6824 28.1029C47.7051 28.0425 47.7429 27.9934 47.7957 27.9556C47.8524 27.9141 47.9128 27.8933 47.977 27.8933H48.7813L45.581 35.3248ZM52.981 28.8393C52.9357 28.9223 52.8658 28.9639 52.7714 28.9639C52.7148 28.9639 52.6506 28.9431 52.5788 28.9016C52.5071 28.86 52.4183 28.8147 52.3126 28.7656C52.2107 28.7128 52.0879 28.6656 51.9444 28.624C51.8009 28.5787 51.631 28.5561 51.4347 28.5561C51.2647 28.5561 51.1118 28.5787 50.9758 28.624C50.8399 28.6656 50.7228 28.7241 50.6247 28.7996C50.5303 28.8751 50.4566 28.9639 50.4038 29.0658C50.3547 29.164 50.3301 29.2716 50.3301 29.3887C50.3301 29.536 50.3717 29.6587 50.4547 29.7569C50.5416 29.8551 50.6549 29.94 50.7946 30.0118C50.9343 30.0835 51.0929 30.1477 51.2704 30.2044C51.4479 30.2572 51.6291 30.3157 51.8142 30.3799C52.003 30.4404 52.1861 30.5083 52.3636 30.5839C52.5411 30.6594 52.6997 30.7538 52.8394 30.8671C52.9791 30.9804 53.0905 31.1201 53.1736 31.2862C53.2604 31.4486 53.3039 31.645 53.3039 31.8753C53.3039 32.1396 53.2567 32.3851 53.1623 32.6117C53.0678 32.8345 52.9281 33.0289 52.7431 33.1951C52.5581 33.3575 52.3315 33.4858 52.0634 33.5802C51.7953 33.6747 51.4856 33.7219 51.1344 33.7219C50.7342 33.7219 50.3717 33.6577 50.0469 33.5293C49.7222 33.3971 49.4465 33.2291 49.2199 33.0252L49.4578 32.64C49.488 32.5909 49.5239 32.5531 49.5655 32.5267C49.607 32.5003 49.6617 32.487 49.7297 32.487C49.7977 32.487 49.8694 32.5135 49.945 32.5663C50.0205 32.6192 50.1111 32.6777 50.2168 32.7419C50.3263 32.8061 50.4566 32.8647 50.6077 32.9175C50.7625 32.9704 50.9551 32.9968 51.1854 32.9968C51.3818 32.9968 51.5536 32.9723 51.7009 32.9232C51.8481 32.8703 51.9709 32.8005 52.0691 32.7136C52.1672 32.6268 52.239 32.5267 52.2843 32.4134C52.3334 32.3001 52.3579 32.1793 52.3579 32.0509C52.3579 31.8923 52.3145 31.762 52.2276 31.6601C52.1446 31.5543 52.0332 31.4656 51.8935 31.3938C51.7537 31.3183 51.5933 31.2541 51.412 31.2013C51.2345 31.1446 51.0514 31.0861 50.8626 31.0257C50.6775 30.9653 50.4944 30.8973 50.3131 30.8218C50.1357 30.7425 49.9771 30.6443 49.8373 30.5272C49.6976 30.4102 49.5843 30.2667 49.4975 30.0967C49.4144 29.923 49.3729 29.7135 49.3729 29.468C49.3729 29.249 49.4182 29.0394 49.5088 28.8393C49.5994 28.6354 49.7316 28.4579 49.9053 28.3068C50.079 28.152 50.2924 28.0293 50.5454 27.9387C50.7984 27.848 51.0872 27.8027 51.412 27.8027C51.7896 27.8027 52.1276 27.8631 52.4259 27.984C52.728 28.101 52.9885 28.2634 53.2076 28.4711L52.981 28.8393ZM54.6077 33.6312V27.8933H55.2081C55.3516 27.8933 55.4422 27.9632 55.48 28.1029L55.5536 28.692C55.7651 28.4314 56.0011 28.2181 56.2617 28.0519C56.526 27.8858 56.8319 27.8027 57.1793 27.8027C57.5682 27.8027 57.8816 27.9103 58.1195 28.1256C58.3612 28.3408 58.5349 28.6316 58.6406 28.9979C58.7199 28.7902 58.8238 28.6108 58.9522 28.4598C59.0843 28.3087 59.2316 28.1841 59.394 28.0859C59.5564 27.9877 59.7282 27.916 59.9094 27.8707C60.0945 27.8254 60.2814 27.8027 60.4702 27.8027C60.7723 27.8027 61.0404 27.8518 61.2745 27.95C61.5124 28.0444 61.7126 28.1841 61.8749 28.3691C62.0411 28.5542 62.1676 28.7826 62.2544 29.0545C62.3413 29.3226 62.3847 29.6304 62.3847 29.9778V33.6312H61.3765V29.9778C61.3765 29.5284 61.2783 29.1886 61.0819 28.9582C60.8856 28.7241 60.6005 28.607 60.2266 28.607C60.0605 28.607 59.9019 28.6372 59.7508 28.6977C59.6036 28.7543 59.4733 28.8393 59.36 28.9526C59.2467 29.0658 59.1561 29.2093 59.0881 29.383C59.0239 29.553 58.9918 29.7512 58.9918 29.9778V33.6312H57.9836V29.9778C57.9836 29.5171 57.8911 29.1735 57.706 28.9469C57.521 28.7203 57.251 28.607 56.8961 28.607C56.6468 28.607 56.4146 28.675 56.1994 28.8109C55.9879 28.9431 55.7934 29.1244 55.6159 29.3547V33.6312H54.6077ZM66.234 27.8027C66.6532 27.8027 67.0308 27.8726 67.3669 28.0123C67.7067 28.152 67.9937 28.3503 68.2278 28.607C68.4657 28.8638 68.647 29.1753 68.7716 29.5416C68.9 29.9041 68.9642 30.3101 68.9642 30.7594C68.9642 31.2126 68.9 31.6204 68.7716 31.9829C68.647 32.3454 68.4657 32.6551 68.2278 32.9119C67.9937 33.1686 67.7067 33.3669 67.3669 33.5066C67.0308 33.6426 66.6532 33.7105 66.234 33.7105C65.8149 33.7105 65.4354 33.6426 65.0955 33.5066C64.7594 33.3669 64.4724 33.1686 64.2345 32.9119C63.9966 32.6551 63.8135 32.3454 63.6851 31.9829C63.5567 31.6204 63.4925 31.2126 63.4925 30.7594C63.4925 30.3101 63.5567 29.9041 63.6851 29.5416C63.8135 29.1753 63.9966 28.8638 64.2345 28.607C64.4724 28.3503 64.7594 28.152 65.0955 28.0123C65.4354 27.8726 65.8149 27.8027 66.234 27.8027ZM66.234 32.9232C66.8004 32.9232 67.2234 32.7344 67.5028 32.3568C67.7822 31.9754 67.922 31.4448 67.922 30.7651C67.922 30.0816 67.7822 29.5492 67.5028 29.1678C67.2234 28.7864 66.8004 28.5957 66.234 28.5957C65.947 28.5957 65.6978 28.6448 65.4863 28.743C65.2749 28.8412 65.0974 28.9828 64.9539 29.1678C64.8142 29.3528 64.7084 29.5813 64.6367 29.8532C64.5687 30.1213 64.5347 30.4253 64.5347 30.7651C64.5347 31.105 64.5687 31.409 64.6367 31.6771C64.7084 31.9452 64.8142 32.1717 64.9539 32.3568C65.0974 32.538 65.2749 32.6777 65.4863 32.7759C65.6978 32.8741 65.947 32.9232 66.234 32.9232ZM71.2544 25.2878V30.1987H71.515C71.5905 30.1987 71.6528 30.1892 71.7019 30.1704C71.751 30.1477 71.8057 30.1043 71.8661 30.0401L73.6787 28.0973C73.7354 28.0368 73.792 27.9877 73.8486 27.95C73.9053 27.9122 73.9808 27.8933 74.0752 27.8933H74.9928L72.88 30.142C72.8272 30.2062 72.7743 30.2629 72.7214 30.312C72.6724 30.3611 72.6157 30.4045 72.5515 30.4423C72.6195 30.4876 72.6799 30.5404 72.7328 30.6009C72.7894 30.6575 72.8423 30.7236 72.8914 30.7991L75.1344 33.6312H74.2281C74.1451 33.6312 74.0733 33.6161 74.0129 33.5859C73.9563 33.5519 73.9015 33.5009 73.8486 33.433L71.9624 31.0823C71.9058 31.003 71.8492 30.952 71.7925 30.9294C71.7359 30.9029 71.6509 30.8897 71.5376 30.8897H71.2544V33.6312H70.2405V25.2878H71.2544ZM78.0758 27.8027C78.4194 27.8027 78.7366 27.8612 79.0274 27.9783C79.3181 28.0916 79.5692 28.2577 79.7807 28.4768C79.9922 28.692 80.1564 28.9601 80.2735 29.2811C80.3943 29.5983 80.4547 29.9608 80.4547 30.3686C80.4547 30.5272 80.4378 30.6329 80.4038 30.6858C80.3698 30.7387 80.3056 30.7651 80.2112 30.7651H76.3935C76.401 31.1276 76.4501 31.4429 76.5407 31.711C76.6314 31.9792 76.756 32.2038 76.9146 32.3851C77.0732 32.5626 77.262 32.6966 77.481 32.7873C77.7 32.8741 77.9455 32.9175 78.2174 32.9175C78.4704 32.9175 78.6875 32.8892 78.8688 32.8326C79.0538 32.7721 79.2124 32.708 79.3446 32.64C79.4767 32.572 79.5862 32.5097 79.6731 32.4531C79.7637 32.3926 79.8411 32.3624 79.9053 32.3624C79.9884 32.3624 80.0526 32.3945 80.0979 32.4587L80.3811 32.8269C80.2565 32.9779 80.1073 33.1101 79.9336 33.2234C79.7599 33.3329 79.573 33.4235 79.3729 33.4953C79.1765 33.567 78.9726 33.6199 78.7611 33.6539C78.5497 33.6916 78.3401 33.7105 78.1324 33.7105C77.7359 33.7105 77.3696 33.6444 77.0335 33.5123C76.7012 33.3763 76.4124 33.18 76.1669 32.9232C75.9252 32.6626 75.7364 32.3417 75.6005 31.9603C75.4645 31.5789 75.3966 31.1408 75.3966 30.6462C75.3966 30.2459 75.457 29.872 75.5778 29.5246C75.7024 29.1772 75.8799 28.877 76.1103 28.624C76.3406 28.3672 76.6219 28.1671 76.9542 28.0236C77.2865 27.8763 77.6604 27.8027 78.0758 27.8027ZM78.0984 28.5447C77.6113 28.5447 77.228 28.6863 76.9486 28.9695C76.6691 29.249 76.4954 29.6379 76.4275 30.1364H79.5485C79.5485 29.9023 79.5164 29.6889 79.4522 29.4963C79.388 29.3 79.2936 29.1319 79.169 28.9922C79.0443 28.8487 78.8914 28.7392 78.7102 28.6637C78.5327 28.5844 78.3288 28.5447 78.0984 28.5447ZM87.5284 32.5777C87.2339 32.5777 86.9941 32.5078 86.8091 32.3681C86.624 32.2246 86.507 32.0056 86.4579 31.711C86.2389 32.0169 86.001 32.2359 85.7442 32.3681C85.4874 32.5003 85.2117 32.5663 84.9172 32.5663C84.6906 32.5663 84.4943 32.5286 84.3281 32.4531C84.162 32.3738 84.0223 32.2661 83.909 32.1302C83.7995 31.9905 83.7164 31.8262 83.6597 31.6374C83.6069 31.4486 83.5804 31.2447 83.5804 31.0257C83.5804 30.7047 83.6409 30.3818 83.7617 30.0571C83.8863 29.7286 84.0695 29.434 84.3111 29.1735C84.5528 28.9091 84.853 28.6939 85.2117 28.5277C85.5743 28.3616 85.9915 28.2785 86.4635 28.2785C86.7166 28.2785 86.9375 28.2993 87.1263 28.3408C87.3188 28.3786 87.5001 28.4352 87.67 28.5107L87.1433 30.5555C87.0715 30.8387 87.0356 31.0729 87.0356 31.2579C87.0356 31.3938 87.0526 31.5071 87.0866 31.5978C87.1206 31.6846 87.1659 31.7545 87.2226 31.8073C87.283 31.8564 87.3509 31.8904 87.4265 31.9093C87.5058 31.9282 87.5888 31.9376 87.6757 31.9376C87.8607 31.9376 88.0363 31.8847 88.2025 31.779C88.3686 31.6733 88.514 31.5241 88.6386 31.3315C88.767 31.139 88.8671 30.9086 88.9388 30.6405C89.0143 30.3686 89.0521 30.0684 89.0521 29.7399C89.0521 29.2188 88.9671 28.7619 88.7972 28.3691C88.6311 27.9764 88.4007 27.6498 88.1062 27.3892C87.8154 27.1249 87.4699 26.9285 87.0696 26.8001C86.6731 26.668 86.2445 26.6019 85.7838 26.6019C85.2778 26.6019 84.8039 26.6982 84.3621 26.8908C83.9203 27.0833 83.5351 27.3496 83.2066 27.6894C82.8781 28.0293 82.6194 28.4314 82.4306 28.8959C82.2418 29.3604 82.1474 29.8664 82.1474 30.4139C82.1474 31.0559 82.2475 31.6204 82.4476 32.1075C82.6515 32.5909 82.9272 32.9968 83.2746 33.3254C83.6258 33.6539 84.0355 33.9012 84.5037 34.0674C84.9757 34.2335 85.4817 34.3166 86.0217 34.3166C86.5957 34.3166 87.1017 34.2543 87.5398 34.1297C87.9816 34.0051 88.363 33.8465 88.6839 33.6539C88.7406 33.6199 88.7916 33.6029 88.8369 33.6029C88.9162 33.6029 88.9747 33.6482 89.0125 33.7388L89.1541 34.1127C88.75 34.3846 88.2893 34.5979 87.772 34.7527C87.2584 34.9076 86.675 34.985 86.0217 34.985C85.3685 34.985 84.7605 34.8811 84.1978 34.6734C83.6352 34.4658 83.1462 34.1656 82.7308 33.7728C82.3192 33.3839 81.9945 32.9062 81.7566 32.3398C81.5224 31.7734 81.4054 31.1314 81.4054 30.4139C81.4054 30.0023 81.4563 29.6058 81.5583 29.2244C81.664 28.843 81.8113 28.4881 82.0001 28.1596C82.1889 27.8273 82.4155 27.5252 82.6798 27.2533C82.9442 26.9776 83.2387 26.7435 83.5634 26.5509C83.8882 26.3545 84.2375 26.2035 84.6113 26.0978C84.9852 25.9883 85.376 25.9335 85.7838 25.9335C86.1312 25.9335 86.4711 25.9713 86.8034 26.0468C87.1357 26.1223 87.4491 26.2337 87.7437 26.381C88.042 26.5283 88.3158 26.7114 88.565 26.9304C88.8142 27.1457 89.0276 27.3949 89.205 27.6781C89.3863 27.9575 89.526 28.271 89.6242 28.6184C89.7262 28.962 89.7771 29.3358 89.7771 29.7399C89.7771 30.1477 89.7186 30.5253 89.6015 30.8727C89.4883 31.2164 89.3297 31.5147 89.1257 31.7677C88.9256 32.0207 88.6877 32.2189 88.4121 32.3624C88.1402 32.5059 87.8456 32.5777 87.5284 32.5777ZM85.1155 31.898C85.2325 31.898 85.3496 31.8791 85.4666 31.8413C85.5875 31.8036 85.7026 31.7375 85.8122 31.6431C85.9254 31.5487 86.0274 31.4203 86.118 31.2579C86.2124 31.0955 86.2917 30.8916 86.3559 30.6462L86.7864 28.9752C86.6391 28.9412 86.4787 28.9242 86.3049 28.9242C86.0217 28.9242 85.7612 28.9847 85.5233 29.1055C85.2892 29.2225 85.0871 29.3774 84.9172 29.57C84.7473 29.7625 84.6132 29.9834 84.515 30.2327C84.4206 30.4819 84.3734 30.7368 84.3734 30.9973C84.3734 31.2692 84.4357 31.4882 84.5604 31.6544C84.685 31.8168 84.87 31.898 85.1155 31.898ZM92.4027 30.6915L90.4712 27.8933H91.4398C91.5228 27.8933 91.5833 27.9066 91.621 27.933C91.6588 27.9594 91.6928 27.9972 91.723 28.0463L93.1277 30.1987C93.1617 30.093 93.2108 29.9872 93.275 29.8815L94.5098 28.0689C94.5476 28.0161 94.5853 27.9745 94.6231 27.9443C94.6608 27.9103 94.708 27.8933 94.7647 27.8933H95.6936L93.7621 30.6348L95.7729 33.6312H94.8043C94.7213 33.6312 94.6552 33.6105 94.6061 33.5689C94.5608 33.5236 94.523 33.4745 94.4928 33.4216L93.0484 31.1729C93.022 31.2824 92.9823 31.3806 92.9295 31.4675L91.5927 33.4216C91.5549 33.4745 91.5134 33.5236 91.4681 33.5689C91.4266 33.6105 91.368 33.6312 91.2925 33.6312H90.3919L92.4027 30.6915ZM98.4511 35.3248C98.4171 35.4004 98.3736 35.4608 98.3208 35.5061C98.2717 35.5514 98.1943 35.5741 98.0885 35.5741H97.3409L98.3887 33.297L96.0211 27.8933H96.8934C96.9802 27.8933 97.0482 27.916 97.0973 27.9613C97.1464 28.0028 97.1823 28.05 97.2049 28.1029L98.7399 31.7167C98.7739 31.7998 98.8022 31.8829 98.8249 31.9659C98.8513 32.049 98.874 32.134 98.8929 32.2208C98.9193 32.134 98.9457 32.049 98.9722 31.9659C98.9986 31.8829 99.0288 31.7979 99.0628 31.711L100.552 28.1029C100.575 28.0425 100.613 27.9934 100.666 27.9556C100.722 27.9141 100.783 27.8933 100.847 27.8933H101.651L98.4511 35.3248ZM106.57 28.3238C106.57 28.3956 106.557 28.4654 106.531 28.5334C106.504 28.5976 106.47 28.6561 106.429 28.709L103.325 32.8439H106.457V33.6312H102.135V33.2121C102.135 33.163 102.147 33.1063 102.169 33.0421C102.196 32.9742 102.232 32.91 102.277 32.8496L105.398 28.6863H102.311V27.8933H106.57V28.3238ZM107.47 33.0082C107.47 32.91 107.487 32.8175 107.521 32.7306C107.559 32.6438 107.608 32.5682 107.668 32.504C107.732 32.4398 107.808 32.3889 107.895 32.3511C107.982 32.3133 108.074 32.2945 108.172 32.2945C108.271 32.2945 108.363 32.3133 108.45 32.3511C108.537 32.3889 108.612 32.4398 108.677 32.504C108.741 32.5682 108.79 32.6438 108.824 32.7306C108.862 32.8175 108.88 32.91 108.88 33.0082C108.88 33.1101 108.862 33.2045 108.824 33.2914C108.79 33.3744 108.741 33.4481 108.677 33.5123C108.612 33.5765 108.537 33.6256 108.45 33.6595C108.363 33.6973 108.271 33.7162 108.172 33.7162C108.074 33.7162 107.982 33.6973 107.895 33.6595C107.808 33.6256 107.732 33.5765 107.668 33.5123C107.608 33.4481 107.559 33.3744 107.521 33.2914C107.487 33.2045 107.47 33.1101 107.47 33.0082ZM114.113 28.9129C114.083 28.9544 114.053 28.9865 114.023 29.0092C113.992 29.0319 113.949 29.0432 113.892 29.0432C113.836 29.0432 113.773 29.0205 113.705 28.9752C113.641 28.9261 113.558 28.8733 113.456 28.8166C113.354 28.76 113.23 28.709 113.082 28.6637C112.939 28.6146 112.761 28.59 112.55 28.59C112.27 28.59 112.023 28.641 111.808 28.743C111.593 28.8412 111.411 28.9847 111.264 29.1735C111.121 29.3623 111.011 29.5907 110.936 29.8588C110.864 30.1269 110.828 30.4271 110.828 30.7594C110.828 31.1069 110.868 31.4165 110.947 31.6884C111.026 31.9565 111.138 32.1831 111.281 32.3681C111.425 32.5494 111.598 32.6891 111.802 32.7873C112.01 32.8817 112.242 32.9289 112.499 32.9289C112.744 32.9289 112.946 32.9005 113.105 32.8439C113.264 32.7835 113.396 32.7174 113.502 32.6456C113.607 32.5739 113.694 32.5097 113.762 32.4531C113.83 32.3926 113.898 32.3624 113.966 32.3624C114.053 32.3624 114.117 32.3945 114.159 32.4587L114.442 32.8269C114.193 33.1328 113.881 33.3575 113.507 33.5009C113.133 33.6407 112.739 33.7105 112.323 33.7105C111.965 33.7105 111.63 33.6444 111.321 33.5123C111.015 33.3801 110.749 33.1894 110.522 32.9402C110.296 32.6872 110.116 32.3775 109.984 32.0112C109.856 31.645 109.791 31.2277 109.791 30.7594C109.791 30.3327 109.85 29.9381 109.967 29.5756C110.088 29.2131 110.262 28.9016 110.488 28.641C110.718 28.3767 111.002 28.1709 111.338 28.0236C111.674 27.8763 112.059 27.8027 112.493 27.8027C112.894 27.8027 113.248 27.8688 113.558 28.001C113.868 28.1293 114.142 28.3125 114.379 28.5504L114.113 28.9129ZM117.81 27.8027C118.229 27.8027 118.606 27.8726 118.943 28.0123C119.282 28.152 119.569 28.3503 119.804 28.607C120.041 28.8638 120.223 29.1753 120.347 29.5416C120.476 29.9041 120.54 30.3101 120.54 30.7594C120.54 31.2126 120.476 31.6204 120.347 31.9829C120.223 32.3454 120.041 32.6551 119.804 32.9119C119.569 33.1686 119.282 33.3669 118.943 33.5066C118.606 33.6426 118.229 33.7105 117.81 33.7105C117.391 33.7105 117.011 33.6426 116.671 33.5066C116.335 33.3669 116.048 33.1686 115.81 32.9119C115.572 32.6551 115.389 32.3454 115.261 31.9829C115.132 31.6204 115.068 31.2126 115.068 30.7594C115.068 30.3101 115.132 29.9041 115.261 29.5416C115.389 29.1753 115.572 28.8638 115.81 28.607C116.048 28.3503 116.335 28.152 116.671 28.0123C117.011 27.8726 117.391 27.8027 117.81 27.8027ZM117.81 32.9232C118.376 32.9232 118.799 32.7344 119.078 32.3568C119.358 31.9754 119.498 31.4448 119.498 30.7651C119.498 30.0816 119.358 29.5492 119.078 29.1678C118.799 28.7864 118.376 28.5957 117.81 28.5957C117.523 28.5957 117.273 28.6448 117.062 28.743C116.851 28.8412 116.673 28.9828 116.53 29.1678C116.39 29.3528 116.284 29.5813 116.212 29.8532C116.144 30.1213 116.11 30.4253 116.11 30.7651C116.11 31.105 116.144 31.409 116.212 31.6771C116.284 31.9452 116.39 32.1717 116.53 32.3568C116.673 32.538 116.851 32.6777 117.062 32.7759C117.273 32.8741 117.523 32.9232 117.81 32.9232ZM121.782 33.6312V27.8933H122.383C122.526 27.8933 122.617 27.9632 122.654 28.1029L122.728 28.692C122.94 28.4314 123.176 28.2181 123.436 28.0519C123.7 27.8858 124.006 27.8027 124.354 27.8027C124.743 27.8027 125.056 27.9103 125.294 28.1256C125.536 28.3408 125.709 28.6316 125.815 28.9979C125.894 28.7902 125.998 28.6108 126.127 28.4598C126.259 28.3087 126.406 28.1841 126.568 28.0859C126.731 27.9877 126.903 27.916 127.084 27.8707C127.269 27.8254 127.456 27.8027 127.645 27.8027C127.947 27.8027 128.215 27.8518 128.449 27.95C128.687 28.0444 128.887 28.1841 129.049 28.3691C129.216 28.5542 129.342 28.7826 129.429 29.0545C129.516 29.3226 129.559 29.6304 129.559 29.9778V33.6312H128.551V29.9778C128.551 29.5284 128.453 29.1886 128.256 28.9582C128.06 28.7241 127.775 28.607 127.401 28.607C127.235 28.607 127.076 28.6372 126.925 28.6977C126.778 28.7543 126.648 28.8393 126.535 28.9526C126.421 29.0658 126.331 29.2093 126.263 29.383C126.198 29.553 126.166 29.7512 126.166 29.9778V33.6312H125.158V29.9778C125.158 29.5171 125.066 29.1735 124.881 28.9469C124.696 28.7203 124.426 28.607 124.071 28.607C123.821 28.607 123.589 28.675 123.374 28.8109C123.162 28.9431 122.968 29.1244 122.79 29.3547V33.6312H121.782Z" fill="white"/>
</svg>
