<svg width="48" height="48" viewBox="0 0 48 48" fill="none" xmlns="http://www.w3.org/2000/svg">
<path d="M28 24C28 26.038 27.384 27.928 26.336 29.508L20.586 23.758C20.21 23.382 20 22.874 20 22.344V14.202C24.564 15.128 28 19.162 28 24ZM16 23.172V14.202C10.9 15.238 7.208 20.154 8.146 25.736C8.796 29.604 11.786 32.822 15.604 33.72C18.544 34.41 21.324 33.786 23.508 32.338L17.17 26C16.42 25.25 16 24.232 16 23.172ZM38 14H34C32.894 14 32 14.896 32 16C32 17.104 32.894 18 34 18H38C39.106 18 40 17.104 40 16C40 14.896 39.106 14 38 14ZM38 22H34C32.894 22 32 22.896 32 24C32 25.104 32.894 26 34 26H38C39.106 26 40 25.104 40 24C40 22.896 39.106 22 38 22ZM38 30H34C32.894 30 32 30.896 32 32C32 33.104 32.894 34 34 34H38C39.106 34 40 33.104 40 32C40 30.896 39.106 30 38 30ZM48 16V32C48 37.514 43.514 42 38 42H10C4.486 42 0 37.514 0 32V16C0 10.486 4.486 6 10 6H38C43.514 6 48 10.486 48 16ZM44 16C44 12.692 41.308 10 38 10H10C6.692 10 4 12.692 4 16V32C4 35.308 6.692 38 10 38H38C41.308 38 44 35.308 44 32V16Z" fill="#A6282D"/>
</svg>
