<svg width="48" height="48" viewBox="0 0 48 48" fill="none" xmlns="http://www.w3.org/2000/svg">
<g clip-path="url(#clip0_6_53)">
<path d="M29.08 39.988C28.94 39.988 29.22 39.996 29.08 39.988V39.988ZM34.616 28.22C35.954 29.652 36.618 31.52 36.486 33.482C36.236 37.146 32.956 39.988 29.082 39.988C25.304 39.788 21.798 38.058 19.824 36.956C18.762 36.368 18.08 35.294 17.998 34.088C17.916 32.88 18.448 31.726 19.42 30.998C21.928 29.098 26.02 26 29.502 26C31.434 26 33.294 26.81 34.616 28.22ZM31.694 30.952C31.12 30.338 30.34 30 29.5 30C27.362 30 24.414 32.232 22.36 33.79C24.124 34.772 26.13 35.838 28.872 35.984C30.538 36.066 32.374 34.98 32.494 33.212C32.552 32.368 32.266 31.566 31.694 30.952ZM48 12.5C48 13.402 47.44 14.21 46.596 14.526L41.086 16.592C40.646 17.652 40.056 18.636 39.346 19.518C41.96 22.338 45.998 28.172 45.998 33.4C45.998 42.882 38.368 48 31.186 48H17.298C7.35197 48 0.239972 41.442 0.00597195 32.05C-0.0460281 29.894 0.353972 25.148 1.09997 22.618C1.51797 21.202 2.68997 20.21 4.15597 20.028C5.60397 19.848 7.04397 20.548 7.79197 21.816C7.95797 22.094 8.13397 22.418 8.32197 22.766C8.89197 23.816 10.078 26 10.934 26C13.064 26 17.278 22.652 20.416 19.214C18.9 17.204 18 14.706 18 12C18 5.382 23.382 0 30 0C35.422 0 40.016 3.614 41.498 8.562L46.596 10.474C47.44 10.79 48 11.598 48 12.5ZM22 12C22 16.412 25.588 20 30 20C34.412 20 38 16.412 38 12C38 7.588 34.412 4 30 4C25.588 4 22 7.588 22 12ZM36.358 22.172C34.514 23.33 32.334 24 30 24C27.528 24 25.228 23.248 23.316 21.962C20.94 24.542 15.39 30 10.934 30C7.69597 30 5.88797 26.666 4.73597 24.542C4.25797 26.748 3.96397 30.332 4.00597 31.95C4.18597 39.156 9.52797 43.998 17.298 43.998H31.186C35.532 43.998 41.998 41.174 41.998 33.398C41.998 29.506 38.598 24.534 36.358 22.17V22.172Z" fill="#A6282D"/>
</g>
<defs>
<clipPath id="clip0_6_53">
<rect width="48" height="48" fill="white"/>
</clipPath>
</defs>
</svg>
