<svg width="48" height="48" viewBox="0 0 48 48" fill="none" xmlns="http://www.w3.org/2000/svg">
<g clip-path="url(#clip0_6_28)">
<path d="M16 0H6C4.4087 0 2.88258 0.632141 1.75736 1.75736C0.632141 2.88258 0 4.4087 0 6L0 16H6L5.958 22L9.958 22.02L10 16H16V9.968L22 10L22.02 6L16 5.968V0ZM12 12H4V6C4 5.46957 4.21071 4.96086 4.58579 4.58579C4.96086 4.21071 5.46957 4 6 4H12V12Z" fill="#A6282D"/>
<path d="M42 0H32V6L26.01 5.968L25.99 9.968L32 10V16H38.03L38 22L42 22.02L42.03 16H48V6C48 4.4087 47.3679 2.88258 46.2426 1.75736C45.1174 0.632141 43.5913 0 42 0ZM44 12H36V4H42C42.5304 4 43.0391 4.21071 43.4142 4.58579C43.7893 4.96086 44 5.46957 44 6V12Z" fill="#A6282D"/>
<path d="M42.042 26.01L38.042 25.99L38.01 32H32V38.032L26.01 38L26 42L32 42.032V48H42C43.5913 48 45.1174 47.3679 46.2426 46.2426C47.3679 45.1174 48 43.5913 48 42V32H42L42.042 26.01ZM44 42C44 42.5304 43.7893 43.0391 43.4142 43.4142C43.0391 43.7893 42.5304 44 42 44H36V36H44V42Z" fill="#A6282D"/>
<path d="M16 32H9.97L10 26.01L6 26L5.97 32H0V42C0 43.5913 0.632141 45.1174 1.75736 46.2426C2.88258 47.3679 4.4087 48 6 48H16V42L22 42.042L22.02 38.042L16 38.01V32ZM12 44H6C5.46957 44 4.96086 43.7893 4.58579 43.4142C4.21071 43.0391 4 42.5304 4 42V36H12V44Z" fill="#A6282D"/>
</g>
<defs>
<clipPath id="clip0_6_28">
<rect width="48" height="48" fill="white"/>
</clipPath>
</defs>
</svg>
