<svg width="48" height="48" viewBox="0 0 48 48" fill="none" xmlns="http://www.w3.org/2000/svg">
<path d="M6 11C6 9.344 7.344 8 9 8C10.656 8 12 9.344 12 11C12 12.656 10.656 14 9 14C7.344 14 6 12.656 6 11ZM17 14C18.656 14 20 12.656 20 11C20 9.344 18.656 8 17 8C15.344 8 14 9.344 14 11C14 12.656 15.344 14 17 14ZM48 8V46H0V8C0 4.692 2.692 2 6 2H42C45.308 2 48 4.692 48 8ZM4 8V16H44V8C44 6.898 43.102 6 42 6H6C4.898 6 4 6.898 4 8ZM28 20H4V29H28V20ZM4 42H28V33H4V42ZM44 42V20H32V42H44Z" fill="#A6282D"/>
</svg>
