<svg width="48" height="48" viewBox="0 0 48 48" fill="none" xmlns="http://www.w3.org/2000/svg">
<g clip-path="url(#clip0_6_37)">
<path d="M22 18C22 19.1 21.1 20 20 20H18V22C18 23.1 17.1 24 16 24C14.9 24 14 23.1 14 22V18C14 16.9 14.9 16 16 16H20C21.1 16 22 16.9 22 18ZM16 28C14.9 28 14 28.9 14 30V34C14 35.1 14.9 36 16 36H20C21.1 36 22 35.1 22 34C22 32.9 21.1 32 20 32H18V30C18 28.9 17.1 28 16 28ZM32 24C33.1 24 34 23.1 34 22V18C34 16.9 33.1 16 32 16H28C26.9 16 26 16.9 26 18C26 19.1 26.9 20 28 20H30V22C30 23.1 30.9 24 32 24ZM42 -1.95317e-05H33.32C30.82 -1.95317e-05 28.6 1.39998 27.7 3.55998C27.08 5.03998 25.62 5.99998 24.02 5.99998C22.42 5.99998 20.96 5.03998 20.34 3.55998C19.42 1.39998 17.22 -1.95317e-05 14.72 -1.95317e-05H6C2.7 -1.95317e-05 0 2.69998 0 5.99998V9.11998C0 11.7 1.64 14 4.1 14.82L4.62 15C5.44 15.28 5.98 16.04 5.98 16.9V38.02C5.98 43.54 10.46 48.02 15.98 48.02H23.98C25.08 48.02 25.98 47.12 25.98 46.02C25.98 44.92 25.08 44.02 23.98 44.02H15.98C12.68 44.02 9.98 41.32 9.98 38.02V16.88C9.98 14.3 8.34 12 5.88 11.18L5.36 11C4.54 10.72 4 9.95998 4 9.09998V5.97998C4 4.87998 4.9 3.97998 6 3.97998H14.68C15.56 3.97998 16.34 4.41998 16.62 5.09998C17.88 8.05998 20.78 9.97998 24 9.97998C27.22 9.97998 30.12 8.05998 31.38 5.09998C31.66 4.43998 32.44 3.97998 33.32 3.97998H42C43.1 3.97998 44 4.87998 44 5.97998V9.09998C44 9.95998 43.46 10.72 42.64 11L42.1 11.18C39.64 12 38 14.28 38 16.88V24C38 25.1 38.9 26 40 26C41.1 26 42 25.1 42 24V16.88C42 16.02 42.54 15.26 43.36 14.98L43.9 14.8C46.36 13.98 48 11.7 48 9.09998V5.97998C48 2.67998 45.3 -0.0200195 42 -0.0200195V-1.95317e-05ZM46 33.9C46.04 34.7 45.6 35.44 44.9 35.78L37.5 39.48L33.8 46.88C33.46 47.56 32.76 47.98 32.02 47.98C31.98 47.98 31.96 47.98 31.92 47.98C31.12 47.94 30.44 47.44 30.16 46.7L24.28 31.36C23.76 29.84 24.12 28.26 25.2 27.16C26.28 26.08 27.86 25.7 29.32 26.2C29.34 26.2 29.36 26.2 29.38 26.22L44.72 32.1C45.46 32.38 45.96 33.08 46 33.86V33.9ZM39.04 34.24L27.98 30L32.22 41.04L34.2 37.1C34.4 36.72 34.7 36.4 35.1 36.2L39.04 34.24Z" fill="#A6282D"/>
</g>
<defs>
<clipPath id="clip0_6_37">
<rect width="48" height="48" fill="white"/>
</clipPath>
</defs>
</svg>
