<svg width="48" height="48" viewBox="0 0 48 48" fill="none" xmlns="http://www.w3.org/2000/svg">
<g clip-path="url(#clip0_6_4)">
<path d="M30 48H18C12.486 48 8 43.514 8 38V10C8 4.486 12.486 0 18 0H30C35.514 0 40 4.486 40 10V38C40 43.514 35.514 48 30 48ZM18 4C14.692 4 12 6.692 12 10V38C12 41.308 14.692 44 18 44H30C33.308 44 36 41.308 36 38V10C36 6.692 33.308 4 30 4H18ZM28 38C28 36.896 27.104 36 26 36H22C20.896 36 20 36.896 20 38C20 39.104 20.896 40 22 40H26C27.104 40 28 39.104 28 38Z" fill="#A6282D"/>
</g>
<defs>
<clipPath id="clip0_6_4">
<rect width="48" height="48" fill="white"/>
</clipPath>
</defs>
</svg>
