<svg width="48" height="48" viewBox="0 0 48 48" fill="none" xmlns="http://www.w3.org/2000/svg">
<g clip-path="url(#clip0_6_58)">
<path d="M39.9 11.08L32.94 4.12003C30.3 1.48003 26.78 0.0200252 23.04 0.0200252H14C8.48 2.51997e-05 4 4.48003 4 10V38C4 43.52 8.48 48 14 48H34C39.52 48 44 43.52 44 38V20.98C44 17.24 42.54 13.72 39.9 11.08ZM37.08 13.9C37.72 14.54 38.26 15.24 38.7 16H30.02C28.92 16 28.02 15.1 28.02 14V5.32003C28.78 5.76003 29.48 6.30003 30.12 6.94003L37.08 13.9ZM40 38C40 41.3 37.3 44 34 44H14C10.7 44 8 41.3 8 38V10C8 6.70003 10.7 4.00003 14 4.00003H23.02C23.34 4.00003 23.68 4.00003 24 4.04003V14C24 17.3 26.7 20 30 20H39.96C40 20.32 40 20.64 40 20.98V38ZM31 24H17C14.24 24 12 26.24 12 29V35C12 37.76 14.24 40 17 40H31C33.76 40 36 37.76 36 35V29C36 26.24 33.76 24 31 24ZM32 35C32 35.56 31.56 36 31 36H17C16.44 36 16 35.56 16 35V29C16 28.44 16.44 28 17 28H31C31.56 28 32 28.44 32 29V35ZM12 18C12 16.9 12.9 16 14 16H18C19.1 16 20 16.9 20 18C20 19.1 19.1 20 18 20H14C12.9 20 12 19.1 12 18Z" fill="#A6282D"/>
</g>
<defs>
<clipPath id="clip0_6_58">
<rect width="48" height="48" fill="white"/>
</clipPath>
</defs>
</svg>
