<svg width="48" height="48" viewBox="0 0 48 48" fill="none" xmlns="http://www.w3.org/2000/svg">
<g clip-path="url(#clip0_6_19)">
<path d="M38 0H10C4.486 0 0 4.486 0 10V38C0 43.514 4.486 48 10 48H38C43.514 48 48 43.514 48 38V10C48 4.486 43.514 0 38 0ZM44 38C44 41.308 41.308 44 38 44H10C6.692 44 4 41.308 4 38V10C4 6.692 6.692 4 10 4H38C41.308 4 44 6.692 44 10V38ZM36 16V32C36 33.104 35.104 34 34 34C32.896 34 32 33.104 32 32V16C32 14.896 32.896 14 34 14C35.104 14 36 14.896 36 16ZM28 16V26C28 30.412 24.412 34 20 34C15.588 34 12 30.412 12 26V16C12 14.896 12.896 14 14 14C15.104 14 16 14.896 16 16V26C16 28.206 17.794 30 20 30C22.206 30 24 28.206 24 26V16C24 14.896 24.896 14 26 14C27.104 14 28 14.896 28 16Z" fill="#A6282D"/>
</g>
<defs>
<clipPath id="clip0_6_19">
<rect width="48" height="48" fill="white"/>
</clipPath>
</defs>
</svg>
