<svg width="184" height="32" viewBox="0 0 184 32" fill="none" xmlns="http://www.w3.org/2000/svg">
<g clip-path="url(#clip0_53_675)">
<path d="M6.55589 4.66747C6.55589 4.87612 6.38588 5.04612 6.18496 5.04612C6.18496 5.04612 6.18496 5.04612 6.17724 5.04612C5.96859 5.04612 5.79858 4.87612 5.79858 4.66747C5.79858 4.45883 5.96859 4.28882 6.17724 4.28882C6.38588 4.28882 6.55589 4.45883 6.55589 4.66747Z" fill="white"/>
<path d="M6.51727 3.56241C6.51727 3.77878 6.34726 3.94879 6.13089 3.94879C5.91451 3.94879 5.74451 3.77878 5.74451 3.56241C5.74451 3.34603 5.91451 3.17603 6.13089 3.17603C6.34726 3.17603 6.51727 3.35376 6.51727 3.56241Z" fill="white"/>
<path d="M6.51727 5.80337C6.51727 6.01975 6.34726 6.18975 6.13089 6.18975C5.91451 6.18975 5.74451 6.01975 5.74451 5.80337C5.74451 5.587 5.91451 5.41699 6.13089 5.41699C6.34726 5.41699 6.51727 5.587 6.51727 5.80337Z" fill="white"/>
<path d="M18.2091 25.7948V26.5753H3.15575V5.88076H3.83578V3.51611H0.798828V28.9322H20.5583V25.7948H18.2091Z" fill="#D1D3D2"/>
<path d="M4.43854 0.888672V17.9744H4.44627L12.0966 25.3388V25.362H24.4453V0.888672H4.43854ZM11.6716 21.2432C10.8215 20.4704 9.2992 19.1181 8.19415 18.1521H11.6716V21.2432ZM22.0652 23.0978H14.299V15.6561H6.81864V3.16059H22.0652V23.0978Z" fill="#F6D92A"/>
<path d="M21.022 5.16211H9.9483V5.72622H21.022V5.16211Z" fill="#1D1D1B"/>
<path d="M20.991 4.07251H9.92511V4.6289H20.991V4.07251Z" fill="#1D1D1B"/>
<path d="M20.991 6.26709H9.92511V6.83121H20.991V6.26709Z" fill="#1D1D1B"/>
<path d="M21.0142 9.53586H7.91595V7.8667H21.022V9.53586H21.0142ZM8.24824 9.20357H20.6974V8.19899H8.24824V9.20357Z" fill="#1D1D1B"/>
<path d="M20.8287 14.1338H7.88501V14.4506H20.8287V14.1338Z" fill="#1D1D1B"/>
<path fill-rule="evenodd" clip-rule="evenodd" d="M22.8998 9.86813C22.5752 9.53584 22.3202 9.58993 22.3202 9.58993L21.1765 10.7336L19.8706 12.0396L19.6387 13.1214L20.7206 12.8896L22.0266 11.5837L23.1702 10.44C23.1702 10.4322 23.2243 10.185 22.8998 9.86813Z" fill="#1D1D1B"/>
<path fill-rule="evenodd" clip-rule="evenodd" d="M22.8302 10.2546L20.6588 12.4029L20.3651 12.1247L22.5443 9.96094L22.8302 10.2546Z" fill="#F6D92A"/>
<path d="M9.06735 13.531C9.0519 13.6701 9.02099 13.7473 8.98235 13.7473C8.93599 13.7473 8.89735 13.6701 8.85098 13.5232C8.81234 13.4073 8.78143 13.2837 8.75825 13.16C8.66552 13.2759 8.59597 13.3532 8.56506 13.3919C8.47233 13.4846 8.41051 13.5232 8.34869 13.5232C8.24823 13.5232 8.20959 13.3996 8.20959 13.1678C8.20186 12.8123 8.28687 12.4645 8.44915 12.1477C8.51869 12.0395 8.58824 11.9391 8.67325 11.8386C8.78143 11.6995 8.85871 11.6377 8.90507 11.6377C8.95144 11.6377 8.9669 11.6763 8.99781 11.7613C9.02099 11.8463 9.03644 11.9313 9.03644 12.0163C9.02872 12.2327 9.00553 12.4491 8.95917 12.6577C8.92053 12.8046 8.89735 12.9591 8.88962 13.1137C8.88962 13.2141 8.89735 13.3069 8.9128 13.4073C8.92826 13.4537 8.98235 13.4923 9.06735 13.531ZM9.01326 12.0395C9.01326 11.9313 8.98235 11.885 8.90507 11.885C8.78916 11.885 8.6887 11.9545 8.64234 12.0627C8.56506 12.2018 8.49551 12.3564 8.44142 12.5032C8.36414 12.6886 8.31778 12.8818 8.31005 13.0828C8.31005 13.1446 8.3255 13.2141 8.34869 13.2682C8.37187 13.2991 8.40278 13.3223 8.44142 13.3223C8.5496 13.3223 8.62688 13.2373 8.71188 13.0518C8.72734 13.0055 8.77371 12.8355 8.85871 12.5418C8.90507 12.3564 8.95144 12.2714 9.00553 12.2714C8.99781 12.1941 9.00553 12.1168 9.01326 12.0395ZM9.06735 13.6237V13.6082V13.6005V13.5696H9.07508V13.5773H9.06735V13.5851H9.07508L9.06735 13.6237Z" fill="#1D1D1B"/>
<path d="M10.0333 10.7955C10.0256 10.9114 10.0024 11.1046 9.94831 11.3751L9.80921 12.1865C9.74739 12.5419 9.70875 12.7738 9.6933 12.9051C9.74739 12.9051 9.78603 12.9206 9.79376 12.967C9.77057 13.052 9.74739 13.137 9.71648 13.222C9.67011 13.3379 9.63148 13.3997 9.60829 13.3997C9.57738 13.3997 9.5542 13.392 9.52329 13.3843C9.50011 13.3765 9.4692 13.3688 9.43829 13.3688C9.40738 13.3688 9.37647 13.3688 9.34556 13.3765C9.31464 13.3843 9.28373 13.392 9.25282 13.392C9.09054 13.392 9.021 13.2838 9.021 13.0674C9.021 12.8201 9.07509 12.5806 9.18328 12.3565C9.28373 12.1556 9.39192 12.0551 9.50011 12.0551C9.53875 12.0551 9.57738 12.0783 9.60057 12.1092C9.60057 12.1169 9.63148 12.1556 9.68557 12.2251L9.70102 12.1865V12.1015L9.72421 12.0551C9.73966 11.8001 9.77057 11.5451 9.81694 11.2901C9.88649 10.8573 9.92513 10.6487 9.94831 10.6487C9.97149 10.6487 9.99467 10.6796 10.0101 10.7182L10.0333 10.7955ZM9.60829 12.6656C9.60829 12.4338 9.56966 12.3178 9.48465 12.3178C9.42283 12.3178 9.35328 12.3797 9.26828 12.5188C9.18328 12.6501 9.13691 12.797 9.12918 12.9515C9.12918 13.0983 9.20646 13.1756 9.36101 13.1756C9.53102 13.1756 9.60829 13.0056 9.60829 12.6656Z" fill="#1D1D1B"/>
<path d="M10.7597 13.2143C10.7133 13.3224 10.6206 13.3997 10.5124 13.4384C10.4197 13.4693 10.327 13.4847 10.2342 13.4847C10.0333 13.4847 9.93286 13.3456 9.93286 13.0597C9.92513 12.7274 10.041 12.4106 10.2497 12.1556C10.3192 12.0783 10.3888 12.001 10.4738 11.9392C10.5511 11.9856 10.5974 12.0165 10.6283 12.0397C10.6824 12.086 10.7056 12.1942 10.7056 12.372C10.7133 12.5111 10.667 12.6424 10.582 12.7506C10.5356 12.8124 10.4583 12.8588 10.3811 12.8665C10.2883 12.8742 10.1956 12.8202 10.1492 12.7429C10.0874 12.8202 10.0565 12.9206 10.0642 13.0133C10.0642 13.2143 10.1338 13.3147 10.2806 13.3147C10.3424 13.3147 10.412 13.2993 10.4738 13.2838C10.5511 13.2452 10.6515 13.222 10.7597 13.2143ZM10.5742 12.3642C10.5433 12.2715 10.5047 12.2251 10.4506 12.2251C10.412 12.2251 10.3733 12.2483 10.3579 12.2792C10.327 12.3179 10.2961 12.3565 10.2651 12.3951C10.3038 12.542 10.3579 12.6115 10.412 12.6115C10.4738 12.6115 10.5356 12.5265 10.5742 12.3642Z" fill="#1D1D1B"/>
<path d="M11.7411 12.1401C11.7488 12.4105 11.6716 12.681 11.517 12.9128C11.3856 13.0906 11.2388 13.2529 11.0843 13.4074C10.9452 13.531 10.837 13.6856 10.7829 13.8633C10.7442 14.1029 10.7133 14.2884 10.6902 14.4197C10.6438 14.6747 10.582 14.8061 10.5356 14.8061C10.5047 14.8061 10.4815 14.7675 10.4815 14.6825C10.5047 14.5434 10.5356 14.412 10.5742 14.2806C10.6051 14.1956 10.6515 14.0643 10.7133 13.8788C10.752 13.7474 10.7829 13.6083 10.8061 13.4692L10.9915 12.9206C11.0533 12.7119 11.092 12.5033 11.0997 12.2869C11.092 12.3101 11.0765 12.3255 11.0611 12.341C11.0456 12.3642 11.0302 12.3874 10.9993 12.4028C10.9838 12.3564 10.9683 12.3024 10.9761 12.2483C10.9761 12.1246 11.0533 12.001 11.2156 11.8773C11.3547 11.7769 11.4629 11.7228 11.5325 11.7228C11.6716 11.7073 11.7411 11.8542 11.7411 12.1401ZM11.6406 12.1323C11.6406 12.0087 11.602 11.9469 11.5015 11.9469C11.4475 11.9469 11.3856 11.9933 11.3315 12.0705C11.2465 12.256 11.177 12.4492 11.1384 12.6424C11.0688 12.851 11.0302 13.0751 11.0147 13.2915C11.0456 13.2529 11.1074 13.2065 11.2002 13.1138C11.3084 12.9901 11.3934 12.851 11.4552 12.7042C11.4861 12.6424 11.5325 12.5265 11.5943 12.3487C11.6175 12.2869 11.6329 12.2096 11.6406 12.1323Z" fill="#1D1D1B"/>
<path d="M12.568 10.8495C12.568 10.9345 12.5525 11.0118 12.537 11.0968C12.5293 11.1354 12.4984 11.2591 12.4289 11.4754C12.4675 11.5218 12.4907 11.5682 12.5139 11.6145C12.5448 11.6841 12.5602 11.7691 12.5525 11.8464V11.9005C12.5525 11.9005 12.5216 11.8695 12.4752 11.8309C12.452 11.8077 12.4211 11.8 12.3902 11.7923C12.3284 11.7923 12.2434 11.9546 12.1198 12.3023C11.9961 12.6423 11.942 12.8896 11.942 13.0596C11.9266 13.1832 11.9884 13.3069 12.0966 13.3764C12.1661 13.4151 12.2434 13.4383 12.3207 13.4383C12.3516 13.4383 12.3825 13.4305 12.4134 13.4228C12.4134 13.446 12.4211 13.4769 12.4289 13.5001C12.3748 13.5619 12.2898 13.6005 12.2048 13.6005C11.942 13.6005 11.8106 13.4383 11.8106 13.1214C11.8106 12.9282 11.8725 12.65 12.0038 12.2791L12.1584 11.8541L12.0966 11.8386C12.0579 11.8386 12.0193 11.8618 11.9961 11.8927C11.9575 11.9468 11.9034 11.9855 11.8416 12.0086C11.8261 12.0086 11.8029 11.9932 11.7875 11.9623C11.772 11.9236 11.7643 11.885 11.7643 11.8464C11.7643 11.7305 11.8184 11.6764 11.9188 11.6764H12.0038C12.0966 11.6841 12.1816 11.6377 12.2279 11.5604C12.3052 11.4445 12.3593 11.3054 12.3825 11.1663C12.3979 11.1045 12.4366 10.9191 12.4907 10.6177C12.5061 10.6177 12.5293 10.6486 12.537 10.7027C12.5525 10.749 12.5602 10.8031 12.568 10.8495Z" fill="#1D1D1B"/>
<path d="M13.8662 10.9423C13.8662 11.0428 13.8585 11.151 13.8353 11.2514C13.8198 11.3364 13.7889 11.4137 13.7425 11.4755L13.7889 11.066C13.7889 10.981 13.7735 10.9037 13.7425 10.8264C13.7116 10.7646 13.6807 10.7337 13.6421 10.7337C13.5107 10.7337 13.4103 10.8805 13.3253 11.1664C13.3021 11.2437 13.248 11.5219 13.1475 12.0165C13.2093 12.0551 13.2712 12.1092 13.3175 12.1633C13.3562 12.2329 13.3716 12.3179 13.3639 12.4029C13.2943 12.3719 13.2171 12.341 13.1552 12.3101C13.0934 12.3101 13.0471 12.4183 12.993 12.6424C12.9852 12.6811 12.9543 12.8588 12.9002 13.1602C12.8461 13.3843 12.7766 13.5156 12.6761 13.562C12.6839 13.4229 12.6993 13.2838 12.7225 13.1524C12.7302 13.1293 12.7766 12.9052 12.8925 12.4801C12.877 12.4492 12.8616 12.4338 12.8616 12.4338C12.8307 12.4415 12.7998 12.457 12.7766 12.4801C12.7225 12.542 12.6839 12.5729 12.6684 12.5729C12.6529 12.5729 12.6298 12.5651 12.622 12.5497C12.6066 12.511 12.5989 12.4724 12.5911 12.426C12.5834 12.3488 12.622 12.2715 12.6839 12.2329C12.7457 12.2174 12.8075 12.1942 12.8616 12.171C12.9389 12.1401 12.993 12.0551 13.0239 11.9237C13.1011 11.6069 13.1475 11.3983 13.1707 11.3055C13.3253 10.7569 13.4798 10.4941 13.6344 10.4941C13.6962 10.4941 13.758 10.5328 13.7889 10.5869C13.843 10.7028 13.8662 10.8264 13.8662 10.9423Z" fill="#1D1D1B"/>
<path d="M14.608 12.6733C14.6235 12.9128 14.5308 13.1524 14.3685 13.3301C14.268 13.4383 14.1289 13.5001 13.9821 13.5001C13.7039 13.5001 13.5648 13.3301 13.5648 12.9901C13.5648 12.7196 13.6653 12.4646 13.8353 12.2637C13.9976 12.055 14.1367 11.9546 14.2448 11.9546C14.3453 11.9546 14.4226 12.0164 14.4921 12.1246C14.5771 12.2482 14.608 12.4337 14.608 12.6733ZM14.5076 12.6501C14.5153 12.5342 14.4921 12.426 14.4303 12.3255C14.3917 12.2637 14.3299 12.2328 14.2603 12.2328C14.1521 12.2328 14.0439 12.3101 13.928 12.4569C13.7966 12.6114 13.7116 12.7969 13.673 12.9978C13.7503 13.2065 13.843 13.3069 13.9589 13.3069C14.0826 13.2992 14.1985 13.2451 14.2912 13.1524C14.4303 13.0287 14.5153 12.8433 14.5076 12.6501Z" fill="#1D1D1B"/>
<path d="M15.3731 12.4879L15.1026 12.2638C15.0331 12.2638 14.9713 12.3797 14.9172 12.6116C14.9017 12.6966 14.8708 12.882 14.8244 13.1679C14.7858 13.4693 14.7085 13.6161 14.6158 13.6161C14.6235 13.4461 14.6544 13.2839 14.7085 13.1216C14.7549 12.9516 14.7935 12.7816 14.8167 12.6116C14.8244 12.5265 14.8244 12.372 14.8322 12.1634C14.8322 12.0706 14.8399 11.9779 14.8553 11.8852C14.8785 11.7615 14.9017 11.6765 14.9326 11.6765H14.9635L14.9867 11.9856C14.9944 12.0629 15.0253 12.1015 15.0717 12.1015H15.1413C15.149 12.1015 15.1567 12.0938 15.1567 12.0938C15.2804 12.0938 15.3654 12.2174 15.3731 12.4879Z" fill="#1D1D1B"/>
<path d="M16.8491 12.1247C16.8413 12.2869 16.8181 12.4492 16.7718 12.6038C16.7563 12.6888 16.7254 12.8124 16.679 12.9901C16.6404 13.1292 16.6172 13.2683 16.6018 13.4152C16.6018 13.4306 16.6095 13.4847 16.6095 13.562C16.6095 13.5929 16.6172 13.6238 16.6172 13.6547C16.6172 13.7088 16.6018 13.7629 16.5709 13.8015C16.5245 13.7629 16.4936 13.6624 16.4936 13.4847C16.4936 13.3147 16.5168 13.1524 16.5631 12.9901C16.6636 12.5729 16.71 12.3178 16.71 12.2019C16.594 12.3024 16.5013 12.426 16.4318 12.5574C16.3777 12.6501 16.2849 12.7815 16.1768 12.967C16.0454 13.1679 15.9604 13.2683 15.9295 13.2683L15.8986 13.2529C15.8986 13.1911 15.9527 13.0365 16.0454 12.8047C16.0917 12.6965 16.1149 12.5806 16.1149 12.4647C16.1149 12.4183 16.1072 12.3797 16.0995 12.3333C16.0995 12.2869 16.0917 12.2406 16.0763 12.1942C15.9758 12.341 15.8908 12.5033 15.8213 12.6733L15.5895 13.2297C15.5122 13.4152 15.4504 13.5002 15.404 13.5002V13.4229C15.404 13.3456 15.4658 13.1292 15.5895 12.797C15.6358 12.6733 15.6745 12.5419 15.7054 12.4106C15.7363 12.2715 15.7672 12.1942 15.7981 12.1787C15.829 12.1633 15.8908 12.1092 16.0067 11.9778C16.0608 11.916 16.0995 11.8928 16.1149 11.8928C16.169 11.8928 16.1999 12.001 16.2231 12.2174C16.2308 12.256 16.2386 12.3488 16.2463 12.4801C16.2927 12.4106 16.3777 12.2947 16.5013 12.1247C16.6172 11.9701 16.7022 11.8928 16.7641 11.8928C16.8181 11.9005 16.8491 11.9701 16.8491 12.1247Z" fill="#1D1D1B"/>
<path d="M17.9387 11.3828C17.9387 11.4987 17.8846 11.6069 17.7996 11.6765C17.7532 11.6996 17.6759 11.7537 17.5523 11.831C17.4518 11.9006 17.3745 11.9933 17.3359 12.1092C17.4364 12.1633 17.5214 12.2251 17.6141 12.2947C17.7377 12.4028 17.8073 12.5497 17.8073 12.7119C17.8073 12.9515 17.7223 13.1756 17.5755 13.3611C17.4364 13.5233 17.3205 13.6238 17.22 13.6238C17.135 13.6238 17.0654 13.5465 16.9959 13.3843C16.9186 13.2065 16.8877 13.0133 16.8954 12.8201V12.7506C16.9263 12.7815 16.9727 12.9051 17.0345 13.1215C17.0964 13.3224 17.1504 13.4306 17.1968 13.4306C17.2664 13.4306 17.3668 13.3611 17.4905 13.2374C17.6141 13.1138 17.6914 12.9438 17.6991 12.766C17.7068 12.6656 17.6605 12.5651 17.5755 12.5033C17.5755 12.5033 17.4827 12.4492 17.3127 12.3333C17.2277 12.2869 17.1582 12.2097 17.1195 12.1169C17.1659 12.001 17.2432 11.9006 17.3282 11.8078C17.4209 11.7151 17.5214 11.6301 17.6296 11.5605C17.7687 11.4446 17.8537 11.3751 17.8846 11.3596C17.9 11.3751 17.9155 11.3828 17.9387 11.3828Z" fill="#1D1D1B"/>
<path d="M8.78141 5.47875C8.78141 5.68739 8.61141 5.8574 8.41049 5.8574H8.40276C8.19412 5.8574 8.02411 5.68739 8.02411 5.47875C8.02411 5.2701 8.19412 5.1001 8.40276 5.1001C8.61141 5.09237 8.78141 5.2701 8.78141 5.47875Z" fill="#1D1D1B"/>
<path d="M8.75054 4.37393C8.75054 4.5903 8.58054 4.76031 8.36416 4.76031C8.14779 4.76031 7.97778 4.5903 7.97778 4.37393C7.97778 4.15756 8.14779 3.98755 8.36416 3.98755C8.58054 3.98755 8.75054 4.15756 8.75054 4.37393Z" fill="#1D1D1B"/>
<path d="M8.75054 6.60708C8.75054 6.82346 8.58054 6.99346 8.36416 6.99346C8.14779 6.99346 7.97778 6.82346 7.97778 6.60708C7.97778 6.39071 8.14779 6.2207 8.36416 6.2207C8.58054 6.2207 8.75054 6.39071 8.75054 6.60708Z" fill="#1D1D1B"/>
<path d="M32.0647 19.5894L30.6428 24.5582H25.9985L32.0647 5.19287H37.984L44.197 24.5582H39.3132L37.7754 19.5894H32.0647ZM37.1263 16.3129L35.8821 12.2095C35.5267 11.0581 35.1712 9.62079 34.8775 8.4771H34.8157C34.5221 9.62851 34.2207 11.089 33.8961 12.2095L32.7138 16.3129H37.1263Z" fill="#1D1D1B"/>
<path d="M60.2937 4.16528V20.3701C60.2937 21.9465 60.3555 23.6157 60.4096 24.5662H56.4144L56.2367 22.5261H56.1517C55.263 24.0793 53.4856 24.883 51.6233 24.883C48.1922 24.883 45.4412 22.0392 45.4412 17.6731C45.4103 12.9361 48.4627 10.1774 51.9247 10.1774C53.7329 10.1774 55.093 10.811 55.7421 11.7538H55.8039V4.16528H60.2937ZM55.7962 16.4599C55.7962 16.2281 55.7962 15.9112 55.7344 15.6562C55.4716 14.5048 54.4902 13.5311 53.0993 13.5311C51.0283 13.5311 49.9928 15.3162 49.9928 17.5263C49.9928 19.9141 51.206 21.4056 53.0684 21.4056C54.3666 21.4056 55.433 20.5401 55.7035 19.3114C55.7653 18.9946 55.7885 18.6468 55.7885 18.3068V16.4599H55.7962Z" fill="#1D1D1B"/>
<path d="M67.3644 18.9326C67.4803 20.7409 69.3504 21.6064 71.4446 21.6064C72.9824 21.6064 74.2265 21.4055 75.4398 21.0036L76.0348 23.9633C74.5588 24.5661 72.7506 24.852 70.7955 24.852C65.8807 24.852 63.0679 22.0932 63.0679 17.6962C63.0679 14.1338 65.3475 10.2004 70.3782 10.2004C75.0534 10.2004 76.8307 13.732 76.8307 17.2094C76.8307 17.959 76.7457 18.6158 76.6839 18.9326H67.3644ZM72.6656 15.942C72.6656 14.8756 72.1942 13.0983 70.1232 13.0983C68.2299 13.0983 67.4571 14.7906 67.3412 15.942H72.6656Z" fill="#1D1D1B"/>
<path d="M79.5277 15.2235C79.5277 13.3844 79.4658 11.8311 79.4117 10.5097H83.3142L83.5228 12.4648H83.5847C84.6511 10.9965 86.3048 10.1929 88.4067 10.1929C91.575 10.1929 94.411 12.8666 94.411 17.3486C94.411 22.4643 91.065 24.8753 87.8426 24.8753C86.0961 24.8753 84.7361 24.1876 84.0869 23.268H84.0251V30.246H79.5277V15.2235ZM84.0251 18.531C84.0251 18.8787 84.056 19.1646 84.1101 19.4505C84.4038 20.6251 85.4393 21.5215 86.7452 21.5215C88.7003 21.5215 89.8517 19.9451 89.8517 17.5573C89.8517 15.3163 88.8162 13.6239 86.8071 13.6239C85.532 13.6239 84.4115 14.5435 84.1178 15.834C84.056 16.0658 84.0328 16.3518 84.0328 16.6068V18.531H84.0251Z" fill="#1D1D1B"/>
<path d="M102.255 6.71533V10.5096H105.477V13.7243H102.255V18.809C102.255 20.5014 102.695 21.2819 104.032 21.2819C104.65 21.2819 104.951 21.2509 105.361 21.1659L105.392 24.4734C104.828 24.6743 103.738 24.8443 102.494 24.8443C101.041 24.8443 99.8281 24.3574 99.094 23.6388C98.2671 22.8042 97.8498 21.4519 97.8498 19.4736V13.7243H95.9257V10.5096H97.8498V7.89765L102.255 6.71533Z" fill="#1D1D1B"/>
<path d="M107.532 4.79883H118.537V6.9471H110.198V13.5387H117.903V15.6561H110.198V24.6356H107.532V4.79883Z" fill="#1D1D1B"/>
<path d="M134.579 17.3949C134.579 22.6651 130.793 24.9602 127.269 24.9602C123.328 24.9602 120.237 22.1319 120.237 17.6267C120.237 12.8897 123.482 10.0923 127.516 10.0923C131.728 10.1 134.579 13.0674 134.579 17.3949ZM122.964 17.5417C122.964 20.6636 124.78 23.0206 127.392 23.0206C129.943 23.0206 131.851 20.6946 131.851 17.4876C131.851 15.0766 130.607 12.0396 127.454 12.0396C124.332 12.0396 122.964 14.8679 122.964 17.5417Z" fill="#1D1D1B"/>
<path d="M137.941 14.8371C137.941 13.1602 137.91 11.7152 137.817 10.3937H140.151L140.274 13.222H140.367C141.032 11.3056 142.67 10.1001 144.463 10.1001C144.733 10.1001 144.949 10.131 145.189 10.1619V12.5961C144.919 12.5343 144.64 12.5343 144.277 12.5343C142.399 12.5343 141.062 13.8866 140.699 15.834C140.637 16.1894 140.607 16.6299 140.607 17.0395V24.6357H137.941V14.8371Z" fill="#1D1D1B"/>
<path d="M147.979 14.2498C147.979 12.7507 147.917 11.5683 147.855 10.3937H150.189L150.312 12.7198H150.405C151.224 11.3674 152.592 10.1001 155.042 10.1001C157.012 10.1001 158.527 11.2747 159.168 12.9593H159.23C159.686 12.1325 160.289 11.5452 160.899 11.1047C161.78 10.4556 162.715 10.1001 164.114 10.1001C166.085 10.1001 168.967 11.3365 168.967 16.2822V24.6434H166.363V16.6067C166.363 13.8403 165.304 12.2175 163.179 12.2175C161.633 12.2175 160.482 13.3071 159.995 14.5435C159.872 14.9298 159.787 15.3703 159.787 15.8417V24.6434H157.182V16.1044C157.182 13.8403 156.155 12.2175 154.122 12.2175C152.484 12.2175 151.24 13.5157 150.815 14.8062C150.66 15.1617 150.606 15.6331 150.606 16.0735V24.6434H148.002V14.2498H147.979Z" fill="#1D1D1B"/>
<path d="M172.908 22.0161C173.727 22.4874 175.118 23.0206 176.455 23.0206C178.364 23.0206 179.276 22.1088 179.276 20.9033C179.276 19.6669 178.518 19.0178 176.579 18.3145C173.913 17.3718 172.668 15.9885 172.668 14.2807C172.668 11.9856 174.608 10.1001 177.73 10.1001C179.214 10.1001 180.52 10.4865 181.308 10.981L180.674 12.8666C180.095 12.5111 179.036 12.0165 177.676 12.0165C176.099 12.0165 175.249 12.8975 175.249 13.9562C175.249 15.1308 176.099 15.664 178.008 16.3981C180.527 17.31 181.857 18.5464 181.857 20.6637C181.857 23.1984 179.824 24.9603 176.401 24.9603C174.793 24.9603 173.31 24.5507 172.274 23.9557L172.908 22.0161Z" fill="#1D1D1B"/>
<path d="M182.033 4.26929C183.682 4.26929 184.97 5.61544 184.97 7.27373C184.97 8.95154 183.682 10.2977 182.033 10.2977C180.375 10.2977 179.068 8.95154 179.068 7.27373C179.068 5.61544 180.375 4.26929 182.033 4.26929ZM182.033 4.66923C180.629 4.66923 179.556 5.82028 179.556 7.303C179.556 8.75645 180.629 9.89775 182.033 9.89775C183.409 9.89775 184.482 8.75645 184.482 7.27373C184.482 5.82028 183.409 4.66923 182.033 4.66923ZM183.341 5.78127L183.223 6.1617C183.097 6.09342 182.736 5.93734 182.277 5.93734C181.36 5.93734 180.912 6.52262 180.912 7.303C180.912 8.06387 181.39 8.67841 182.287 8.67841C182.677 8.67841 183.048 8.57111 183.272 8.42479L183.389 8.79547C183.048 9.01983 182.599 9.09786 182.189 9.09786C181.058 9.09786 180.404 8.31749 180.404 7.33226C180.404 6.22023 181.282 5.51789 182.268 5.51789C182.775 5.51789 183.214 5.66421 183.341 5.78127Z" fill="#1D1D1B"/>
</g>
<defs>
<clipPath id="clip0_53_675">
<rect width="182.402" height="32" fill="white" transform="translate(0.798828)"/>
</clipPath>
</defs>
</svg>
