<svg width="106" height="32" viewBox="0 0 106 32" fill="none" xmlns="http://www.w3.org/2000/svg">
<path d="M41.0375 1.12476L41.443 1.12476L43.3693 1.13811L54.5663 20.0577L53.4903 22.2208L41.0375 1.12476Z" fill="#052237"/>
<path d="M62.2867 3.33992L64.8679 3.33986L53.5313 22.286L52.4344 20.4436L62.2867 3.33992Z" fill="#EB261E"/>
<rect x="53.6129" y="1.33887" width="11.2542" height="2.00391" fill="#EB261E"/>
<rect x="1.09483" y="1.13232" width="15.4099" height="2.02762" fill="#052237"/>
<rect x="1.09486" y="19.7864" width="15.4099" height="2.02762" fill="#052237"/>
<rect x="1.09486" y="10.8647" width="15.4099" height="2.02762" fill="#052237"/>
<rect x="3.1222" y="1.33496" width="11.3547" height="2.02762" transform="rotate(90 3.1222 1.33496)" fill="#052237"/>
<rect x="16.505" y="10.8647" width="10.9492" height="2.02762" transform="rotate(90 16.505 10.8647)" fill="#052237"/>
<rect x="21.3899" y="1.16748" width="15.4099" height="2.02762" fill="#052237"/>
<rect x="21.3899" y="10.8948" width="15.4099" height="2.02762" fill="#052237"/>
<rect x="21.3899" y="19.8164" width="15.4099" height="2.02762" fill="#052237"/>
<rect x="23.3981" y="10.9116" width="10.9418" height="2.03847" transform="rotate(90 23.3981 10.9116)" fill="#052237"/>
<rect x="69.6115" y="1.16748" width="15.4099" height="2.02762" fill="#052237"/>
<rect x="69.6258" y="10.8647" width="15.4099" height="2.02762" fill="#052237"/>
<rect x="69.6115" y="19.8164" width="15.4099" height="2.02762" fill="#052237"/>
<rect x="71.6201" y="10.8647" width="10.9492" height="2.02762" transform="rotate(90 71.6201 10.8647)" fill="#052237"/>
<path d="M90.1785 1.16797H91.755L91.888 1.37216L92.1761 1.80903V21.8387H90.1785V1.16797Z" fill="#052237"/>
<path d="M105.287 21.8466L102.914 21.8466L90.1778 1.16807L92.215 1.16807L105.287 21.8466Z" fill="#052237"/>
<rect x="103.29" y="1.16748" width="1.99759" height="20.6707" fill="#052237"/>
<rect x="59.5179" y="24.3569" width="4.95055" height="1.04222" fill="#EB261E"/>
<rect x="59.5118" y="30.9512" width="4.95055" height="1.04222" fill="#EB261E"/>
<rect x="60.5596" y="24.3569" width="4.25574" height="1.04222" transform="rotate(90 60.5596 24.3569)" fill="#EB261E"/>
<rect x="64.4698" y="27.7412" width="4.16928" height="1.04469" transform="rotate(90 64.4698 27.7412)" fill="#EB261E"/>
<rect x="59.5179" y="27.7441" width="4.95055" height="1.04222" fill="#EB261E"/>
<rect x="41.9743" y="24.3572" width="4.95055" height="1.04222" fill="#EB261E"/>
<rect x="46.9253" y="24.3569" width="7.64295" height="1.04222" transform="rotate(90 46.9253 24.3569)" fill="#EB261E"/>
<rect x="41.9742" y="27.7441" width="4.95055" height="1.04222" fill="#EB261E"/>
<rect x="41.9742" y="30.9578" width="4.95055" height="1.04222" fill="#EB261E"/>
<rect x="51.0924" y="24.3572" width="4.95055" height="1.04222" fill="#EB261E"/>
<rect x="52.1343" y="24.3569" width="7.64295" height="1.04222" transform="rotate(90 52.1343 24.3569)" fill="#EB261E"/>
<rect x="56.044" y="27.7441" width="4.25574" height="1.04222" transform="rotate(90 56.044 27.7441)" fill="#EB261E"/>
<rect x="51.0928" y="27.7441" width="4.95055" height="1.04222" fill="#EB261E"/>
<rect x="51.0928" y="30.9578" width="4.95055" height="1.04222" fill="#EB261E"/>
</svg>
