<svg width="126" height="32" viewBox="0 0 126 32" fill="none" xmlns="http://www.w3.org/2000/svg">
<g clip-path="url(#clip0_52_168)">
<path d="M103.213 11.3421V1.46878H23.0191C22.9444 1.73466 22.9142 10.6954 22.9861 11.3321C23.0982 11.3393 23.2189 11.3551 23.3382 11.3551C24.258 11.3579 25.1763 11.3464 26.0961 11.3637C26.4382 11.3694 26.7816 11.4212 27.1194 11.4787C27.8207 11.5979 28.2001 12.0449 28.3079 12.729C28.3525 13.0121 28.3812 13.2996 28.3812 13.5855C28.3884 15.2627 28.3941 16.9399 28.3769 18.6171C28.3726 19.0022 28.3022 19.3931 28.2131 19.7697C28.1053 20.2296 27.7934 20.5443 27.3335 20.6521C26.911 20.7513 26.4755 20.8404 26.0444 20.8433C23.5049 20.8605 20.9654 20.8591 18.4259 20.8433C18.0178 20.8404 17.6039 20.7642 17.2015 20.678C16.6683 20.563 16.3464 20.2051 16.2242 19.6763C16.1725 19.4535 16.1236 19.2236 16.1222 18.9979C16.115 17.0563 16.1135 15.1161 16.125 13.1745C16.1265 12.9158 16.1969 12.6514 16.2644 12.3984C16.3808 11.9687 16.6553 11.6626 17.0922 11.5563C17.4688 11.4643 17.8568 11.3795 18.242 11.3694C19.1833 11.3421 20.1261 11.3579 21.0689 11.3565C21.1939 11.3565 21.319 11.3565 21.4828 11.3565C21.4929 11.1869 21.5072 11.0446 21.5072 10.9009C21.5072 7.43159 21.5072 3.96371 21.5072 0.49438V0.0718526C21.8248 -0.0172518 104.304 -0.0258748 104.652 0.0589181V11.3421C104.17 11.3421 103.689 11.3421 103.207 11.3421H103.213ZM26.0357 18.9951V13.1314C25.6578 13.0552 18.7177 13.0667 18.4374 13.1458V18.9951H26.0357Z" fill="#A6282D"/>
<path d="M6.86104 20.8648C6.86392 21.7832 6.86823 22.703 6.86823 23.6213C6.86823 25.7929 6.86823 27.963 6.86823 30.1346C6.86823 30.2682 6.87973 30.4019 6.88691 30.5571H75.5505V20.8734C75.414 20.8663 75.2918 20.8533 75.1697 20.8533C74.3304 20.8519 73.4911 20.8648 72.6532 20.8461C72.2422 20.8375 71.8283 20.7915 71.423 20.7211C70.7418 20.6047 70.3523 20.1779 70.2502 19.4981C70.2114 19.2379 70.1798 18.9735 70.1798 18.7105C70.1741 16.9643 70.1712 15.2182 70.1813 13.472C70.1827 13.1645 70.2244 12.854 70.2862 12.5522C70.4026 11.9788 70.7576 11.6152 71.3353 11.4974C71.6486 11.4327 71.9705 11.3666 72.2881 11.3651C74.9656 11.3551 77.643 11.3536 80.3205 11.3651C80.6611 11.3666 81.006 11.4341 81.3394 11.5146C81.8482 11.6368 82.1946 11.9601 82.3081 12.4818C82.3756 12.7937 82.4374 13.1156 82.4403 13.4332C82.4532 15.2024 82.4532 16.9715 82.4403 18.7407C82.4374 19.0698 82.3771 19.4047 82.298 19.7251C82.1831 20.1922 81.8798 20.5041 81.4142 20.655C80.9715 20.7987 80.5145 20.8418 80.0546 20.8476C79.1808 20.8576 78.3084 20.8519 77.4346 20.8519C77.3111 20.8519 77.1889 20.8519 77.0236 20.8519V32H5.43106C5.42819 28.2763 5.42675 24.5713 5.42387 20.8648C5.90245 20.8648 6.38103 20.8648 6.86104 20.8648ZM72.4764 18.9749C72.9881 19.0525 79.852 19.0281 80.0905 18.9563C80.1538 18.5222 80.1337 13.37 80.0618 13.1027H72.4764C72.4764 15.0658 72.4764 17.0103 72.4764 18.9749Z" fill="#A6282D"/>
<path d="M58.1507 18.6544H65.3955C65.4142 18.2405 65.4012 17.831 65.4041 17.4228C65.407 17.0218 65.4041 16.6209 65.4041 16.1854H68.083C68.0887 16.2673 68.1002 16.355 68.0974 16.4426C68.0816 17.2575 68.0744 18.0724 68.0399 18.8873C68.0298 19.1359 67.9608 19.386 67.8847 19.626C67.7295 20.116 67.3989 20.4423 66.9074 20.6147C66.4116 20.7872 65.8971 20.8389 65.3811 20.8418C62.9681 20.8504 60.5551 20.8548 58.1421 20.8375C57.688 20.8346 57.2281 20.7527 56.7811 20.655C56.1545 20.5185 55.7449 20.1146 55.6098 19.4823C55.5236 19.0799 55.4474 18.6674 55.4445 18.2592C55.4287 16.1222 55.4258 13.9865 55.446 11.8495C55.4503 11.4082 55.5379 10.9598 55.6443 10.5273C55.7736 9.99838 56.1329 9.63621 56.6618 9.50112C57.0815 9.39477 57.5155 9.31285 57.9466 9.29129C58.658 9.2568 59.3709 9.27692 60.0837 9.27692C61.7609 9.27692 63.4395 9.27261 65.1167 9.2798C65.5062 9.28123 65.8985 9.30135 66.2837 9.35453C67.4003 9.50687 67.9263 10.0271 68.0313 11.1409C68.1017 11.8926 68.0959 12.6528 68.1261 13.4591C67.2063 13.485 66.3297 13.5094 65.4185 13.5353V11.4082C65.1469 11.3306 58.6839 11.3062 58.1507 11.3723V18.6544Z" fill="#0F131C"/>
<path d="M84.5257 20.8476V11.3795C84.6205 11.3709 84.7082 11.3579 84.7973 11.3579C86.8884 11.3579 88.9809 11.3536 91.072 11.3608C91.9501 11.3637 92.8124 11.4758 93.6474 11.7632C95.4711 12.3913 96.5303 13.8241 96.5936 15.7514C96.6122 16.3032 96.5864 16.8522 96.4642 17.394C96.194 18.5883 95.5142 19.4636 94.4364 20.0341C93.7063 20.4207 92.9202 20.6363 92.1053 20.7225C91.4097 20.7958 90.7083 20.8361 90.0084 20.8433C88.3198 20.8605 86.6297 20.849 84.941 20.849H84.5285L84.5257 20.8476ZM86.8668 19.0712C86.9976 19.0712 87.0982 19.0712 87.2002 19.0712C88.005 19.0712 88.8084 19.0798 89.6132 19.0684C90.1292 19.0612 90.6465 19.041 91.1611 18.9994C91.6655 18.9577 92.1585 18.8513 92.6356 18.6703C93.4303 18.3685 93.9118 17.7979 94.1073 16.9801C94.2366 16.4383 94.2553 15.8908 94.1805 15.3375C94.0411 14.307 93.5065 13.6028 92.5005 13.2809C92.0032 13.1213 91.4916 13.0667 90.9713 13.0682C89.6951 13.0696 88.4204 13.0682 87.1442 13.0682C87.0551 13.0682 86.9674 13.0768 86.8668 13.0825V19.0698V19.0712Z" fill="#0F131C"/>
<path d="M103.213 11.3421C103.695 11.3421 104.176 11.3421 104.657 11.3421C105.507 11.3479 106.356 11.3536 107.207 11.3565C107.78 11.3594 108.354 11.3565 108.95 11.3565V13.0351C108.446 13.0394 107.934 13.0351 107.423 13.0366C106.905 13.0366 106.389 13.0366 105.872 13.0366H101.191C101.116 13.2852 101.098 14.524 101.159 15.086H107.456C107.471 15.6364 107.461 16.1595 107.463 16.7315C107.026 16.7416 106.606 16.7358 106.188 16.7358C105.774 16.7358 105.36 16.7358 104.948 16.7358H101.148V19.054H109.057V20.8289H98.8111V11.3565C98.939 11.3565 99.0612 11.3565 99.1833 11.3565C100.401 11.3565 101.619 11.3565 102.837 11.3565C102.963 11.3565 103.088 11.3464 103.215 11.3421H103.213Z" fill="#0F131C"/>
<path d="M30.3487 11.368H40.4951V13.0294C40.1459 13.0452 39.7823 13.0351 39.4201 13.0366C39.0407 13.038 38.6613 13.0366 38.2833 13.0366H33.8022C33.4357 13.0366 33.0693 13.0366 32.6841 13.0366V15.0874H38.9846V16.7229H32.6697V20.8203H30.3487V11.368Z" fill="#0F131C"/>
<path d="M53.4842 11.3709V13.0696H48.9083V20.826H46.6002V13.0811H42.0501V11.3694H53.4857L53.4842 11.3709Z" fill="#0F131C"/>
<path d="M101.333 28.4531C101.47 27.0993 101.602 25.79 101.736 24.4606H108.031V25.6693H102.832C102.775 26.1392 102.72 26.579 102.66 27.072C102.809 27.0605 102.94 27.0533 103.071 27.0418C104.169 26.9412 105.268 26.8506 106.372 26.9325C106.878 26.9699 107.372 27.0676 107.841 27.2688C109.118 27.8164 109.624 29.3556 108.923 30.5643C108.715 30.925 108.406 31.1736 108.031 31.3461C107.492 31.5947 106.915 31.6996 106.332 31.7514C105.057 31.8635 103.785 31.7744 102.515 31.6551C102.153 31.6206 101.79 31.5689 101.407 31.5229C101.382 31.0342 101.359 30.5815 101.335 30.1015C101.727 30.1604 102.076 30.2122 102.426 30.2639C103.575 30.4349 104.732 30.5168 105.893 30.4436C106.267 30.4206 106.647 30.3473 107.003 30.2352C107.413 30.1058 107.625 29.7868 107.634 29.3456C107.644 28.8813 107.466 28.5565 107.027 28.4114C106.672 28.295 106.293 28.2174 105.919 28.1944C104.932 28.134 103.945 28.1872 102.962 28.2864C102.437 28.3395 101.914 28.3956 101.335 28.4559L101.333 28.4531Z" fill="#0F131C"/>
<path d="M78.9854 29.4016H80.4585V30.3559C80.5648 30.3674 80.651 30.3846 80.7373 30.3846C81.9546 30.3861 83.1718 30.3846 84.3891 30.3846C84.4466 30.3846 84.5041 30.3846 84.5616 30.3803C84.9424 30.3501 85.0646 30.2265 85.079 29.8385C85.0876 29.5971 85.0876 29.3556 85.079 29.1156C85.0646 28.7146 84.9654 28.6083 84.5745 28.5609C84.4495 28.5465 84.323 28.5436 84.1965 28.5436C83.5656 28.5422 82.9333 28.5436 82.3023 28.5436C82.1902 28.5436 82.0767 28.5436 81.9474 28.5436V27.3565C82.1112 27.3565 82.2564 27.3565 82.4029 27.3565C83.0008 27.3565 83.5972 27.3623 84.1951 27.3536C84.6636 27.3465 84.7886 27.2185 84.8016 26.7586C84.8073 26.5747 84.8088 26.3907 84.7987 26.2082C84.78 25.8389 84.6579 25.7167 84.2971 25.688C84.2856 25.688 84.2741 25.6865 84.2626 25.6865C83.0339 25.6865 81.8051 25.6865 80.5404 25.6865V26.5661H79.0946C79.0773 26.1205 79.0486 25.6779 79.1492 25.2381C79.2369 24.8558 79.4654 24.6029 79.8563 24.5282C80.092 24.4836 80.3334 24.4477 80.572 24.4477C81.9962 24.4405 83.4205 24.4405 84.8447 24.4477C85.0617 24.4477 85.2802 24.4735 85.4929 24.5167C86.0031 24.6201 86.2517 24.8515 86.2991 25.3632C86.3451 25.8633 86.3408 26.372 86.3077 26.8751C86.2819 27.2847 86.0289 27.5678 85.6395 27.7158C85.4943 27.7704 85.3477 27.8207 85.135 27.8954C85.3204 27.9472 85.4469 27.9831 85.5748 28.0176C85.8809 28.0995 86.1741 28.2202 86.3494 28.4919C86.4644 28.6686 86.5779 28.8828 86.5894 29.0854C86.6196 29.61 86.621 30.1417 86.5794 30.6649C86.5377 31.1765 86.2201 31.4999 85.7171 31.6105C85.4943 31.6594 85.2629 31.6924 85.0358 31.6939C83.4966 31.7011 81.9574 31.6996 80.4197 31.6939C80.2141 31.6939 80.0086 31.658 79.806 31.6263C79.3676 31.5574 79.1075 31.2886 79.0299 30.8618C78.9437 30.3875 78.9624 29.9075 78.9868 29.403L78.9854 29.4016Z" fill="#0F131C"/>
<path d="M97.8223 28.5752C97.7778 27.9299 97.4257 27.4859 96.7933 27.2976C96.5519 27.2257 96.3032 27.1711 96.0546 27.1424C94.9077 27.0058 93.7623 27.0605 92.6183 27.1855C92.2907 27.2214 91.963 27.2602 91.6353 27.2976C91.6296 27.2459 91.6209 27.2214 91.6267 27.2013C91.6396 27.1582 91.6569 27.1151 91.6756 27.0734C91.9055 26.5747 92.2648 26.1895 92.7664 25.974C93.1213 25.8216 93.4993 25.7081 93.8787 25.6305C94.7152 25.458 95.5674 25.4623 96.4168 25.448C96.5375 25.4465 96.6568 25.4365 96.7789 25.4307V24.2824C95.7701 24.268 94.7971 24.1919 93.827 24.3514C93.2234 24.4506 92.6356 24.6 92.0866 24.8716C90.8981 25.4623 90.1162 26.385 89.9668 27.7259C89.8805 28.4962 89.9222 29.2823 89.9251 30.0613C89.9251 30.251 89.9912 30.445 90.0472 30.6318C90.1823 31.0817 90.4741 31.395 90.9282 31.52C91.2243 31.6019 91.5347 31.6766 91.8394 31.681C93.1602 31.6982 94.4809 31.6953 95.8017 31.6838C96.2156 31.6795 96.6237 31.5933 97.0017 31.4093C97.4961 31.1693 97.7936 30.7698 97.8266 30.2265C97.8597 29.6775 97.8626 29.1228 97.8238 28.5752H97.8223ZM96.2587 29.8155C96.2228 30.0828 96.046 30.2481 95.7873 30.3013C95.5746 30.3458 95.3561 30.3789 95.1406 30.3818C94.3487 30.3904 93.5554 30.3918 92.7635 30.3818C92.5249 30.3789 92.282 30.3444 92.0478 30.2955C91.7805 30.2395 91.6008 30.0728 91.5405 29.794C91.4456 29.3542 91.4011 28.913 91.483 28.4243C91.8265 28.3927 92.1441 28.3496 92.4646 28.3367C93.2794 28.3022 94.0943 28.2734 94.9092 28.2576C95.1492 28.2533 95.3906 28.2849 95.6278 28.3237C96.0805 28.3999 96.286 28.6356 96.2989 29.0998C96.3061 29.3384 96.2903 29.5813 96.2587 29.8184V29.8155Z" fill="#0F131C"/>
<path d="M112.047 31.6925H111.22V28.1326H112.047V31.6925Z" fill="#0F131C"/>
<path d="M117.704 31.6925H117.138L114.524 29.4921C114.413 29.4002 114.314 29.3039 114.228 29.2018C114.251 29.4318 114.262 29.6129 114.262 29.7465V31.6925H113.518V28.1326H114.084L116.587 30.2294C116.767 30.3818 116.902 30.5097 116.994 30.616C116.971 30.2855 116.96 30.0799 116.96 30.0023V28.1326H117.704V31.6925Z" fill="#0F131C"/>
<path d="M122.989 30.2625V30.8517C122.989 31.1823 122.925 31.4065 122.799 31.5214C122.672 31.6364 122.441 31.6939 122.106 31.6939H119.982C119.646 31.6939 119.416 31.6364 119.289 31.5214C119.163 31.4065 119.1 31.1837 119.1 30.8517V28.9748C119.1 28.6442 119.163 28.42 119.289 28.305C119.416 28.1901 119.647 28.1326 119.982 28.1326H122.106C122.529 28.1326 122.792 28.2317 122.892 28.4286C122.957 28.5436 122.989 28.8382 122.989 29.3111V29.4318L122.161 29.4418V28.7664H119.926V31.0227H122.161V30.2567L122.989 30.261V30.2625Z" fill="#0F131C"/>
<path d="M125.12 31.4381C125.12 31.5487 125.106 31.6192 125.078 31.6479C125.051 31.6781 124.979 31.6925 124.864 31.6925H124.216C124.105 31.6925 124.051 31.6077 124.051 31.4366V30.8776C124.051 30.7669 124.065 30.6965 124.092 30.6678C124.12 30.6376 124.192 30.6232 124.306 30.6232H124.955C125.065 30.6232 125.12 30.708 125.12 30.879V31.4381Z" fill="#0F131C"/>
<path d="M12.8655 18.1011C12.8655 19.1704 12.6571 19.8919 12.2418 20.2641C11.8265 20.6349 11.0748 20.8217 9.98976 20.8217H2.87578C1.70161 20.8217 0.928414 20.6133 0.556187 20.198C0.18396 19.7812 -0.00143433 18.4791 -0.00143433 17.2891L2.36271 17.2992V18.6588H10.5014V16.0273H3.32274C2.23767 16.0273 1.49035 15.8419 1.08219 15.4697C0.674035 15.0975 0.46852 14.3774 0.46852 13.3068V12.0363C0.46852 10.9656 0.674035 10.2456 1.08219 9.87336C1.49035 9.50257 2.23767 9.31573 3.32274 9.31573H9.85467C10.9555 9.31573 11.7172 9.49251 12.1081 9.88342C12.706 10.4813 12.7089 11.5448 12.7089 12.6298L10.3462 12.637V11.322H2.80967V13.7968H9.98976C11.0748 13.7968 11.8265 13.9822 12.2418 14.3544C12.6571 14.7267 12.8655 15.4467 12.8655 16.5174V18.1011Z" fill="#0F131C"/>
</g>
<defs>
<clipPath id="clip0_52_168">
<rect width="125.12" height="32" fill="white"/>
</clipPath>
</defs>
</svg>
