<svg width="156" height="32" viewBox="0 0 156 32" fill="none" xmlns="http://www.w3.org/2000/svg">
<g clip-path="url(#clip0_53_652)">
<path d="M53.0519 8.32007H56.2878L62.2848 18.4999C62.2848 18.4999 62.4431 19.1303 62.7982 18.4999C63.1533 17.8696 68.8943 8.32007 68.8943 8.32007H72.1096L63.8236 21.7152C63.8236 21.7152 62.6606 23.8858 61.3378 21.8735C60.015 19.8612 53.0519 8.32007 53.0519 8.32007Z" fill="#2A6090"/>
<path d="M66.197 22.7197H69.4314L75.6074 12.2838C75.6074 12.2838 75.8042 11.8695 76.0217 12.2838C76.2392 12.6981 78.1124 15.7358 78.1124 15.7358C78.1124 15.7358 78.5667 16.1309 77.8949 16.1501C77.2232 16.1693 74.5806 16.1501 74.5806 16.1501L73.2193 18.5382L79.8096 18.5767L82.2362 22.7197H85.3922C85.3922 22.7197 78.5859 11.0409 77.639 9.60125C76.692 8.16157 75.054 7.98253 74.0287 9.60125C73.0033 11.22 66.197 22.7197 66.197 22.7197Z" fill="#2A6090"/>
<path d="M85.7029 8.32007H89.1164L94.1664 13.6467L99.1972 8.32007H102.63L95.8236 15.5791L102.63 22.6814L99.1779 22.7213L94.1664 17.513L89.1919 22.7406H85.7L92.4663 15.5791L85.7029 8.32007Z" fill="#2A6090"/>
<path d="M103.657 8.32007H117.329V10.8059H111.647L111.706 22.7213H109.239L109.22 10.8843H103.657V8.32007Z" fill="#2A6090"/>
<path d="M130.398 20.0743C130.398 20.0743 125.801 20.1335 124.873 20.0743H125.228C125.228 20.0743 129.826 20.1335 130.753 20.0743C131.681 20.0151 134.541 19.2264 134.482 15.2403C134.423 11.2542 130.102 10.8014 130.102 10.8014C130.102 10.8014 125.623 10.8221 125.583 10.8014H125.505C125.505 10.8014 121.165 11.2364 121.106 15.2403C121.047 19.2442 123.907 20.0151 124.835 20.0743C125.763 20.1335 130.358 20.0743 130.358 20.0743H130.713C129.766 20.1335 125.19 20.0743 125.19 20.0743M125.19 8.37483H130.891C131.956 8.37483 136.75 10.072 136.809 14.2549C136.849 16.1873 136.809 16.4832 136.809 16.4832C136.809 16.4832 135.803 22.2641 131.088 22.4017C130.221 22.4417 125.091 22.4017 125.091 22.4017C125.091 22.4017 118.699 21.8898 118.758 15.4179C118.738 14.8636 118.771 14.3086 118.857 13.7607C118.857 12.1435 121.402 8.35559 125.19 8.37483Z" fill="#2A6090"/>
<path d="M138.658 8.38501H150.061C150.061 8.38501 155.348 9.076 155.249 13.3166C155.149 17.5572 151.659 18.1506 151.304 18.269C151.678 18.664 155.624 22.6487 155.624 22.6487H151.955L148.009 18.6048L142.623 18.5841L142.583 16.0199L149.765 16.0791C149.765 16.0791 152.763 16.0007 152.744 13.5149C152.724 11.0291 150.416 10.7924 149.567 10.7924H141.202L141.281 22.6294H138.658V8.38501Z" fill="#2A6090"/>
<path d="M28.8229 0.0207148L20.5 8.32589V14.8762L31.8843 14.9147L31.9228 24.4243L26.6553 29.5926L28.8229 32H34.2976L50.1134 16.0007L34.231 0H28.8229V0.0207148Z" fill="url(#paint0_linear_53_652)"/>
<path d="M16.2594 0.020752L0.376999 16.0008L16.3186 32H21.6837L29.9696 23.5365V16.7702H18.6652V7.63494L23.9401 2.26979L21.6911 0.020752H16.2594Z" fill="url(#paint1_linear_53_652)"/>
</g>
<defs>
<linearGradient id="paint0_linear_53_652" x1="20.5226" y1="15.5374" x2="59.98" y2="15.5374" gradientUnits="userSpaceOnUse">
<stop stop-color="#6BCFEC"/>
<stop offset="0.13" stop-color="#6BCFEC"/>
<stop offset="1" stop-color="#18ABEA"/>
</linearGradient>
<linearGradient id="paint1_linear_53_652" x1="0.399622" y1="15.5374" x2="39.857" y2="15.5374" gradientUnits="userSpaceOnUse">
<stop stop-color="#4DA1DB"/>
<stop offset="0.01" stop-color="#4DA1DB"/>
<stop offset="0.14" stop-color="#4DA1DB"/>
<stop offset="1" stop-color="#2661A2"/>
</linearGradient>
<clipPath id="clip0_53_652">
<rect width="155.256" height="32" fill="white" transform="translate(0.371994)"/>
</clipPath>
</defs>
</svg>
