<svg width="285" height="85" viewBox="0 0 285 85" fill="none" xmlns="http://www.w3.org/2000/svg">
<g clip-path="url(#clip0_53_2341)">
<path d="M132.592 22.7071H187.243L194.529 15.4206H227.897V14.6985H194.228L186.942 21.985H132.592V22.7071Z" fill="white"/>
<path d="M197.001 20.3751H232.415L249.756 3.03402H274.233V2.31189H249.455L232.114 19.653H197.001V20.3751Z" fill="white"/>
<path d="M156.196 48.0669H213.179L253.799 7.44718L253.287 6.93567L212.883 47.3448H156.196V48.0669Z" fill="white"/>
<path d="M162.61 53.929H215.551L257.77 11.7046H282.688V10.9824H257.474L215.25 53.2069H162.61V53.929Z" fill="white"/>
<path d="M92.6634 37.2097H134.707L144.105 27.807H222.646V27.0848H143.809L134.406 36.4876H92.6634V37.2097Z" fill="white"/>
<path d="M148.914 32.0946H216.528V32.8167H148.914V32.0946Z" fill="white"/>
<path d="M79.1031 64.9316H116.564L142.941 38.5589H212.155V37.8317H142.64L116.268 64.2095H79.404L41.2967 26.1022H2.31177V26.8243H41.0008L79.1031 64.9316Z" fill="white"/>
<path d="M155.995 82.6988L156.507 82.1872L144.396 70.0766H74.2695L35.9816 31.7837H6.10353V32.5108H35.6807L73.9686 70.7987H144.1L155.995 82.6988Z" fill="white"/>
<path d="M221.408 72.2932H266.365V71.5711H221.704L214.347 64.2094H127.346V64.9315H214.046L221.408 72.2932Z" fill="white"/>
<path d="M226.218 66.4612H255.875V65.739H226.513L219.884 59.1095H137.822V59.8316H219.583L226.218 66.4612Z" fill="white"/>
<path d="M82.8943 30.9763H130.55V30.2542H83.1952L61.2806 8.3446H15.4305V9.06673H60.9797L82.8943 30.9763Z" fill="white"/>
<path d="M81.1743 42.4954H128.509V43.2175H81.1743V42.4954Z" fill="white"/>
<path d="M75.026 50.7949H122.391V50.0728H75.3269L44.5211 19.272H12.2209V19.9941H44.2202L75.026 50.7949Z" fill="white"/>
<path d="M76.5306 35.6503L77.0371 35.1387L55.7243 13.8259H21.699V14.5481H55.4284L76.5306 35.6503Z" fill="white"/>
<path d="M276.55 5.35102C278.024 5.35102 279.223 4.15248 279.223 2.67814C279.223 1.20379 278.024 0.000244141 276.55 0.000244141C275.075 0.000244141 273.877 1.19878 273.877 2.67312C273.877 4.14747 275.075 5.346 276.55 5.346V5.35102ZM276.55 0.722373C277.628 0.722373 278.501 1.59996 278.501 2.67312C278.501 3.74629 277.623 4.62387 276.55 4.62387C275.477 4.62387 274.599 3.74629 274.599 2.67312C274.599 1.59494 275.477 0.722373 276.55 0.722373Z" fill="white"/>
<path d="M130.55 25.0239C132.024 25.0239 133.223 23.8253 133.223 22.351C133.223 20.8766 132.024 19.6781 130.55 19.6781C129.075 19.6781 127.877 20.8766 127.877 22.351C127.877 23.8253 129.075 25.0239 130.55 25.0239ZM130.55 20.3952C131.628 20.3952 132.501 21.2728 132.501 22.346C132.501 23.4191 131.623 24.2967 130.55 24.2967C129.477 24.2967 128.599 23.4191 128.599 22.346C128.599 21.2728 129.477 20.3952 130.55 20.3952Z" fill="white"/>
<path d="M130.825 45.5345C132.3 45.5345 133.498 44.3359 133.498 42.8616C133.498 41.3873 132.3 40.1887 130.825 40.1887C129.351 40.1887 128.152 41.3873 128.152 42.8616C128.152 44.3359 129.351 45.5345 130.825 45.5345ZM130.825 40.9058C131.903 40.9058 132.776 41.7834 132.776 42.8566C132.776 43.9348 131.898 44.8073 130.825 44.8073C129.752 44.8073 128.874 43.9297 128.874 42.8566C128.874 41.7834 129.752 40.9058 130.825 40.9058Z" fill="white"/>
<path d="M90.3466 39.5215C91.821 39.5215 93.0195 38.323 93.0195 36.8487C93.0195 35.3743 91.821 34.1758 90.3466 34.1758C88.8723 34.1758 87.6738 35.3743 87.6738 36.8487C87.6738 38.323 88.8723 39.5215 90.3466 39.5215ZM90.3466 34.8929C91.4248 34.8929 92.2974 35.7705 92.2974 36.8436C92.2974 37.9168 91.4198 38.7944 90.3466 38.7944C89.2735 38.7944 88.3959 37.9168 88.3959 36.8436C88.3959 35.7655 89.2735 34.8929 90.3466 34.8929Z" fill="white"/>
<path d="M3.7861 34.8227C5.26044 34.8227 6.45898 33.6242 6.45898 32.1498C6.45898 30.6755 5.26044 29.4769 3.7861 29.4769C2.31175 29.4769 1.11324 30.6755 1.11324 32.1498C1.11324 33.6242 2.31175 34.8227 3.7861 34.8227ZM3.7861 30.194C4.86428 30.194 5.73685 31.0716 5.73685 32.1448C5.73685 33.218 4.85926 34.0955 3.7861 34.0955C2.71293 34.0955 1.83537 33.218 1.83537 32.1448C1.83537 31.0666 2.71293 30.194 3.7861 30.194Z" fill="white"/>
<path d="M19.3877 16.8649C20.862 16.8649 22.0605 15.6664 22.0605 14.192C22.0605 12.7177 20.862 11.5192 19.3877 11.5192C17.9133 11.5192 16.7148 12.7177 16.7148 14.192C16.7148 15.6664 17.9133 16.8649 19.3877 16.8649ZM19.3877 12.2363C20.4659 12.2363 21.3384 13.1139 21.3384 14.187C21.3384 15.2602 20.4609 16.1378 19.3877 16.1378C18.3145 16.1378 17.4369 15.2602 17.4369 14.187C17.4369 13.1139 18.3145 12.2363 19.3877 12.2363Z" fill="white"/>
<path d="M160.298 56.2459C161.772 56.2459 162.971 55.0474 162.971 53.573C162.971 52.0987 161.772 50.9001 160.298 50.9001C158.823 50.9001 157.625 52.0987 157.625 53.573C157.625 55.0474 158.823 56.2459 160.298 56.2459ZM160.298 51.6173C161.376 51.6173 162.249 52.4948 162.249 53.568C162.249 54.6412 161.371 55.5188 160.298 55.5188C159.225 55.5188 158.347 54.6412 158.347 53.568C158.347 52.4948 159.225 51.6173 160.298 51.6173Z" fill="white"/>
<path d="M258.186 68.7778C259.66 68.7778 260.858 67.5792 260.858 66.1049C260.858 64.6305 259.66 63.432 258.186 63.432C256.711 63.432 255.513 64.6305 255.513 66.1049C255.513 67.5792 256.711 68.7778 258.186 68.7778ZM258.186 64.1491C259.264 64.1491 260.136 65.0267 260.136 66.0999C260.136 67.173 259.259 68.0506 258.186 68.0506C257.112 68.0506 256.235 67.173 256.235 66.0999C256.235 65.0267 257.112 64.1491 258.186 64.1491Z" fill="white"/>
<path d="M125.028 66.9073C126.503 66.9073 127.701 65.7087 127.701 64.2344C127.701 62.7601 126.503 61.5615 125.028 61.5615C123.554 61.5615 122.355 62.7601 122.355 64.2344C122.355 65.7087 123.554 66.9073 125.028 66.9073ZM125.028 62.2786C126.106 62.2786 126.979 63.1562 126.979 64.2294C126.979 65.3025 126.101 66.1801 125.028 66.1801C123.955 66.1801 123.078 65.3025 123.078 64.2294C123.078 63.1562 123.955 62.2786 125.028 62.2786Z" fill="white"/>
<path d="M218.84 35.1338C220.314 35.1338 221.513 33.9353 221.513 32.461C221.513 30.9866 220.314 29.7881 218.84 29.7881C217.365 29.7881 216.167 30.9866 216.167 32.461C216.167 33.9353 217.365 35.1338 218.84 35.1338ZM218.84 30.5052C219.918 30.5052 220.791 31.3828 220.791 32.4559C220.791 33.5341 219.913 34.4067 218.84 34.4067C217.762 34.4067 216.889 33.5291 216.889 32.4559C216.889 31.3828 217.767 30.5052 218.84 30.5052Z" fill="white"/>
<path d="M227.897 15.0596C227.897 16.3384 228.935 17.3714 230.209 17.3714C231.482 17.3714 232.521 16.3334 232.521 15.0596C232.521 13.7859 231.482 12.7478 230.209 12.7478C228.93 12.7478 227.897 13.7859 227.897 15.0596Z" fill="white"/>
<path d="M251.231 7.30168C251.231 8.58045 252.269 9.6135 253.543 9.6135C254.816 9.6135 255.854 8.57544 255.854 7.30168C255.854 6.02793 254.816 4.98987 253.543 4.98987C252.269 4.98987 251.231 6.02793 251.231 7.30168Z" fill="white"/>
<path d="M194.689 20.0142C194.689 21.293 195.727 22.326 197.001 22.326C198.279 22.326 199.312 21.288 199.312 20.0142C199.312 18.7354 198.274 17.7024 197.001 17.7024C195.727 17.7024 194.689 18.7405 194.689 20.0142Z" fill="white"/>
<path d="M220.334 27.446C220.334 28.7247 221.372 29.7578 222.646 29.7578C223.925 29.7578 224.958 28.7197 224.958 27.446C224.958 26.1672 223.92 25.1342 222.646 25.1342C221.372 25.1342 220.334 26.1722 220.334 27.446Z" fill="white"/>
<path d="M209.843 38.2079C209.843 39.4867 210.881 40.5197 212.155 40.5197C213.429 40.5197 214.467 39.4817 214.467 38.2079C214.467 36.9342 213.429 35.8961 212.155 35.8961C210.881 35.8961 209.843 36.9342 209.843 38.2079Z" fill="white"/>
<path d="M280.371 11.3436C280.371 12.6223 281.409 13.6554 282.683 13.6554C283.957 13.6554 285 12.6223 285 11.3436C285 10.0648 283.962 9.03174 282.688 9.03174C281.409 9.03174 280.376 10.0698 280.376 11.3436H280.371Z" fill="white"/>
<path d="M153.883 47.7057C153.883 48.9845 154.921 50.0175 156.195 50.0175C157.474 50.0175 158.507 48.9795 158.507 47.7057C158.507 46.427 157.469 45.3939 156.195 45.3939C154.921 45.3939 153.883 46.432 153.883 47.7057Z" fill="white"/>
<path d="M264.053 71.9323C264.053 73.2111 265.091 74.2441 266.365 74.2441C267.644 74.2441 268.677 73.2061 268.677 71.9323C268.677 70.6585 267.639 69.6205 266.365 69.6205C265.091 69.6205 264.053 70.6585 264.053 71.9323Z" fill="white"/>
<path d="M137.821 61.9176C136.544 61.9176 135.509 60.8825 135.509 59.6058C135.509 58.329 136.544 57.2939 137.821 57.2939C139.098 57.2939 140.133 58.329 140.133 59.6058C140.133 60.8825 139.098 61.9176 137.821 61.9176Z" fill="white"/>
<path d="M153.939 82.443C153.939 83.7218 154.977 84.7549 156.251 84.7549C157.529 84.7549 158.562 83.7168 158.562 82.443C158.562 81.1693 157.524 80.1312 156.251 80.1312C154.977 80.1312 153.939 81.1693 153.939 82.443Z" fill="white"/>
<path d="M146.597 32.9322C146.597 34.2109 147.635 35.244 148.909 35.244C150.183 35.244 151.221 34.2059 151.221 32.9322C151.221 31.6534 150.183 30.6204 148.909 30.6204C147.635 30.6204 146.597 31.6584 146.597 32.9322Z" fill="white"/>
<path d="M128.238 30.6154C128.238 31.8942 129.276 32.9272 130.55 32.9272C131.823 32.9272 132.861 31.8892 132.861 30.6154C132.861 29.3416 131.823 28.3036 130.55 28.3036C129.271 28.3036 128.238 29.3416 128.238 30.6154Z" fill="white"/>
<path d="M74.4691 35.0334C74.4691 36.3121 75.5072 37.3452 76.781 37.3452C78.0547 37.3452 79.0928 36.3071 79.0928 35.0334C79.0928 33.7596 78.0547 32.7216 76.781 32.7216C75.5022 32.7216 74.4691 33.7596 74.4691 35.0334Z" fill="white"/>
<path d="M78.8627 42.8565C78.8627 44.1353 79.9008 45.1683 81.1745 45.1683C82.4533 45.1683 83.4863 44.1302 83.4863 42.8565C83.4863 41.5827 82.4483 40.5447 81.1745 40.5447C79.9008 40.5447 78.8627 41.5827 78.8627 42.8565Z" fill="white"/>
<path d="M0.000380039 26.4633C0.000380039 27.7421 1.03843 28.7751 2.31219 28.7751C3.58594 28.7751 4.62402 27.7371 4.62402 26.4633C4.62402 25.1845 3.58594 24.1515 2.31219 24.1515C1.03342 24.1515 0.000380039 25.1895 0.000380039 26.4633Z" fill="white"/>
<path d="M9.90959 19.6331C9.90959 20.9119 10.9476 21.9449 12.2214 21.9449C13.4952 21.9449 14.5332 20.9069 14.5332 19.6331C14.5332 18.3543 13.4952 17.3213 12.2214 17.3213C10.9476 17.3213 9.90959 18.3593 9.90959 19.6331Z" fill="white"/>
<path d="M13.1137 8.70598C13.1137 9.98475 14.1517 11.0178 15.4255 11.0178C16.7043 11.0178 17.7373 9.97973 17.7373 8.70598C17.7373 7.43222 16.6993 6.39417 15.4255 6.39417C14.1517 6.39417 13.1137 7.43222 13.1137 8.70598Z" fill="white"/>
<path d="M120.074 50.4338C120.074 51.7125 121.112 52.7456 122.385 52.7456C123.659 52.7456 124.697 51.7075 124.697 50.4338C124.697 49.155 123.659 48.1219 122.385 48.1219C121.112 48.1219 120.074 49.16 120.074 50.4338Z" fill="white"/>
</g>
<defs>
<clipPath id="clip0_53_2341">
<rect width="285" height="84.7548" fill="white" transform="matrix(-1 0 0 1 285 0)"/>
</clipPath>
</defs>
</svg>
