<svg width="319" height="95" viewBox="0 0 319 95" fill="none" xmlns="http://www.w3.org/2000/svg">
<g clip-path="url(#clip0_6_4799)">
<path d="M148.409 25.4158H209.58L217.735 17.2601H255.084V16.4518H217.399L209.243 24.6076H148.409V25.4158Z" fill="#052439"/>
<path d="M220.503 22.8057H260.142L279.552 3.39586H306.949V2.58759H279.215L259.805 21.9975H220.503V22.8057Z" fill="#052439"/>
<path d="M174.829 53.801H238.61L284.076 8.33538L283.503 7.76285L238.279 52.9927H174.829V53.801Z" fill="#052439"/>
<path d="M182.008 60.3626H241.265L288.521 13.1008H316.412V12.2926H288.19L240.928 59.5543H182.008V60.3626Z" fill="#052439"/>
<path d="M103.718 41.6487H150.777L161.296 31.1243H249.208V30.316H160.965L150.441 40.8404H103.718V41.6487Z" fill="#052439"/>
<path d="M166.679 35.9234H242.36V36.7316H166.679V35.9234Z" fill="#052439"/>
<path d="M88.5399 72.6776H130.469L159.994 43.1586H237.465V42.3447H159.657L130.138 71.8693H88.8767L46.2232 29.2159H2.58751V30.0241H45.8921L88.5399 72.6776Z" fill="#052439"/>
<path d="M174.605 92.5645L175.177 91.992L161.622 78.4365H83.129L40.2734 35.5754H6.83098V36.3893H39.9367L82.7922 79.2448H161.29L174.605 92.5645Z" fill="#052439"/>
<path d="M247.821 80.9175H298.142V80.1092H248.152L239.918 71.8693H142.537V72.6776H239.581L247.821 80.9175Z" fill="#052439"/>
<path d="M253.204 74.3895H286.4V73.5813H253.535L246.115 66.1608H154.263V66.9691H245.778L253.204 74.3895Z" fill="#052439"/>
<path d="M92.7836 34.6717H146.124V33.8634H93.1204L68.5914 9.34009H17.2714V10.1484H68.2546L92.7836 34.6717Z" fill="#052439"/>
<path d="M90.8583 47.5648H143.84V48.3731H90.8583V47.5648Z" fill="#052439"/>
<path d="M83.9766 56.8544H136.992V56.0461H84.3134L49.8325 21.5709H13.6789V22.3791H49.4957L83.9766 56.8544Z" fill="#052439"/>
<path d="M85.6605 39.9031L86.2274 39.3305L62.372 15.4751H24.2876V16.2834H62.0409L85.6605 39.9031Z" fill="#052439"/>
<path d="M309.542 5.98911C311.192 5.98911 312.534 4.64759 312.534 2.99736C312.534 1.34713 311.192 0 309.542 0C307.892 0 306.55 1.34152 306.55 2.99175C306.55 4.64198 307.892 5.9835 309.542 5.9835V5.98911ZM309.542 0.808277C310.749 0.808277 311.726 1.79056 311.726 2.99175C311.726 4.19294 310.743 5.17522 309.542 5.17522C308.341 5.17522 307.359 4.19294 307.359 2.99175C307.359 1.78495 308.341 0.808277 309.542 0.808277Z" fill="#052439"/>
<path d="M146.124 28.0091C147.774 28.0091 149.116 26.6676 149.116 25.0173C149.116 23.3671 147.774 22.0256 146.124 22.0256C144.474 22.0256 143.132 23.3671 143.132 25.0173C143.132 26.6676 144.474 28.0091 146.124 28.0091ZM146.124 22.8282C147.331 22.8282 148.308 23.8105 148.308 25.0117C148.308 26.2129 147.325 27.1952 146.124 27.1952C144.923 27.1952 143.941 26.2129 143.941 25.0117C143.941 23.8105 144.923 22.8282 146.124 22.8282Z" fill="#052439"/>
<path d="M146.433 50.9664C148.083 50.9664 149.425 49.6249 149.425 47.9746C149.425 46.3244 148.083 44.9829 146.433 44.9829C144.783 44.9829 143.441 46.3244 143.441 47.9746C143.441 49.6249 144.783 50.9664 146.433 50.9664ZM146.433 45.7855C147.64 45.7855 148.616 46.7678 148.616 47.969C148.616 49.1758 147.634 50.1525 146.433 50.1525C145.232 50.1525 144.249 49.1702 144.249 47.969C144.249 46.7678 145.232 45.7855 146.433 45.7855Z" fill="#052439"/>
<path d="M101.125 44.2363C102.775 44.2363 104.116 42.8948 104.116 41.2446C104.116 39.5943 102.775 38.2528 101.125 38.2528C99.4743 38.2528 98.1328 39.5943 98.1328 41.2446C98.1328 42.8948 99.4743 44.2363 101.125 44.2363ZM101.125 39.0555C102.331 39.0555 103.308 40.0378 103.308 41.2389C103.308 42.4401 102.326 43.4224 101.125 43.4224C99.9234 43.4224 98.9411 42.4401 98.9411 41.2389C98.9411 40.0321 99.9234 39.0555 101.125 39.0555Z" fill="#052439"/>
<path d="M4.23774 38.9769C5.88797 38.9769 7.22949 37.6354 7.22949 35.9852C7.22949 34.3349 5.88797 32.9934 4.23774 32.9934C2.5875 32.9934 1.24601 34.3349 1.24601 35.9852C1.24601 37.6354 2.5875 38.9769 4.23774 38.9769ZM4.23774 33.7961C5.44454 33.7961 6.42121 34.7784 6.42121 35.9795C6.42121 37.1807 5.43892 38.163 4.23774 38.163C3.03655 38.163 2.05429 37.1807 2.05429 35.9795C2.05429 34.7727 3.03655 33.7961 4.23774 33.7961Z" fill="#052439"/>
<path d="M21.7 18.8766C23.3503 18.8766 24.6918 17.5351 24.6918 15.8849C24.6918 14.2346 23.3503 12.8931 21.7 12.8931C20.0498 12.8931 18.7083 14.2346 18.7083 15.8849C18.7083 17.5351 20.0498 18.8766 21.7 18.8766ZM21.7 13.6958C22.9069 13.6958 23.8835 14.6781 23.8835 15.8793C23.8835 17.0805 22.9012 18.0627 21.7 18.0627C20.4989 18.0627 19.5166 17.0805 19.5166 15.8793C19.5166 14.6781 20.4989 13.6958 21.7 13.6958Z" fill="#052439"/>
<path d="M179.421 62.9558C181.071 62.9558 182.412 61.6143 182.412 59.9641C182.412 58.3138 181.071 56.9723 179.421 56.9723C177.77 56.9723 176.429 58.3138 176.429 59.9641C176.429 61.6143 177.77 62.9558 179.421 62.9558ZM179.421 57.775C180.627 57.775 181.604 58.7573 181.604 59.9585C181.604 61.1596 180.622 62.1419 179.421 62.1419C178.219 62.1419 177.237 61.1596 177.237 59.9585C177.237 58.7573 178.219 57.775 179.421 57.775Z" fill="#052439"/>
<path d="M288.987 76.9828C290.637 76.9828 291.979 75.6413 291.979 73.991C291.979 72.3408 290.637 70.9993 288.987 70.9993C287.337 70.9993 285.995 72.3408 285.995 73.991C285.995 75.6413 287.337 76.9828 288.987 76.9828ZM288.987 71.8019C290.194 71.8019 291.17 72.7842 291.17 73.9854C291.17 75.1866 290.188 76.1689 288.987 76.1689C287.786 76.1689 286.804 75.1866 286.804 73.9854C286.804 72.7842 287.786 71.8019 288.987 71.8019Z" fill="#052439"/>
<path d="M139.944 74.8891C141.594 74.8891 142.936 73.5476 142.936 71.8974C142.936 70.2471 141.594 68.9056 139.944 68.9056C138.294 68.9056 136.952 70.2471 136.952 71.8974C136.952 73.5476 138.294 74.8891 139.944 74.8891ZM139.944 69.7083C141.151 69.7083 142.128 70.6906 142.128 71.8917C142.128 73.0929 141.145 74.0752 139.944 74.0752C138.743 74.0752 137.761 73.0929 137.761 71.8917C137.761 70.6906 138.743 69.7083 139.944 69.7083Z" fill="#052439"/>
<path d="M244.947 39.3249C246.597 39.3249 247.939 37.9834 247.939 36.3331C247.939 34.6829 246.597 33.3414 244.947 33.3414C243.297 33.3414 241.955 34.6829 241.955 36.3331C241.955 37.9834 243.297 39.3249 244.947 39.3249ZM244.947 34.1441C246.154 34.1441 247.131 35.1263 247.131 36.3275C247.131 37.5343 246.148 38.511 244.947 38.511C243.74 38.511 242.764 37.5287 242.764 36.3275C242.764 35.1263 243.746 34.1441 244.947 34.1441Z" fill="#052439"/>
<path d="M255.084 16.856C255.084 18.2873 256.246 19.4436 257.672 19.4436C259.098 19.4436 260.26 18.2817 260.26 16.856C260.26 15.4302 259.098 14.2683 257.672 14.2683C256.241 14.2683 255.084 15.4302 255.084 16.856Z" fill="#052439"/>
<path d="M281.202 8.17257C281.202 9.60389 282.364 10.7602 283.789 10.7602C285.215 10.7602 286.377 9.59828 286.377 8.17257C286.377 6.74686 285.215 5.58496 283.789 5.58496C282.364 5.58496 281.202 6.74686 281.202 8.17257Z" fill="#052439"/>
<path d="M217.915 22.4016C217.915 23.8329 219.077 24.9892 220.502 24.9892C221.934 24.9892 223.09 23.8273 223.09 22.4016C223.09 20.9703 221.928 19.814 220.502 19.814C219.077 19.814 217.915 20.9759 217.915 22.4016Z" fill="#052439"/>
<path d="M246.62 30.7201C246.62 32.1515 247.782 33.3078 249.208 33.3078C250.639 33.3078 251.795 32.1459 251.795 30.7201C251.795 29.2888 250.633 28.1325 249.208 28.1325C247.782 28.1325 246.62 29.2944 246.62 30.7201Z" fill="#052439"/>
<path d="M234.877 42.7657C234.877 44.197 236.039 45.3533 237.465 45.3533C238.891 45.3533 240.053 44.1914 240.053 42.7657C240.053 41.34 238.891 40.1781 237.465 40.1781C236.039 40.1781 234.877 41.34 234.877 42.7657Z" fill="#052439"/>
<path d="M313.819 12.6967C313.819 14.128 314.981 15.2843 316.407 15.2843C317.832 15.2843 319 14.128 319 12.6967C319 11.2654 317.838 10.1091 316.412 10.1091C314.981 10.1091 313.825 11.271 313.825 12.6967H313.819Z" fill="#052439"/>
<path d="M172.242 53.3968C172.242 54.8281 173.403 55.9844 174.829 55.9844C176.26 55.9844 177.417 54.8225 177.417 53.3968C177.417 51.9654 176.255 50.8091 174.829 50.8091C173.403 50.8091 172.242 51.971 172.242 53.3968Z" fill="#052439"/>
<path d="M295.554 80.5134C295.554 81.9447 296.716 83.101 298.142 83.101C299.573 83.101 300.73 81.9391 300.73 80.5134C300.73 79.0877 299.568 77.9258 298.142 77.9258C296.716 77.9258 295.554 79.0877 295.554 80.5134Z" fill="#052439"/>
<path d="M154.263 69.3041C152.834 69.3041 151.675 68.1456 151.675 66.7165C151.675 65.2874 152.834 64.1289 154.263 64.1289C155.692 64.1289 156.851 65.2874 156.851 66.7165C156.851 68.1456 155.692 69.3041 154.263 69.3041Z" fill="#052439"/>
<path d="M172.303 92.2783C172.303 93.7096 173.465 94.8659 174.891 94.8659C176.322 94.8659 177.479 93.704 177.479 92.2783C177.479 90.8525 176.317 89.6906 174.891 89.6906C173.465 89.6906 172.303 90.8525 172.303 92.2783Z" fill="#052439"/>
<path d="M164.086 36.8608C164.086 38.2921 165.248 39.4484 166.673 39.4484C168.099 39.4484 169.261 38.2865 169.261 36.8608C169.261 35.4295 168.099 34.2732 166.673 34.2732C165.248 34.2732 164.086 35.4351 164.086 36.8608Z" fill="#052439"/>
<path d="M143.536 34.2675C143.536 35.6989 144.698 36.8552 146.124 36.8552C147.55 36.8552 148.712 35.6933 148.712 34.2675C148.712 32.8418 147.55 31.6799 146.124 31.6799C144.693 31.6799 143.536 32.8418 143.536 34.2675Z" fill="#052439"/>
<path d="M83.3536 39.2127C83.3536 40.644 84.5155 41.8003 85.9412 41.8003C87.3669 41.8003 88.5288 40.6384 88.5288 39.2127C88.5288 37.787 87.3669 36.6251 85.9412 36.6251C84.5099 36.6251 83.3536 37.787 83.3536 39.2127Z" fill="#052439"/>
<path d="M88.2706 47.969C88.2706 49.4003 89.4325 50.5566 90.8582 50.5566C92.2895 50.5566 93.4458 49.3947 93.4458 47.969C93.4458 46.5433 92.2839 45.3814 90.8582 45.3814C89.4325 45.3814 88.2706 46.5433 88.2706 47.969Z" fill="#052439"/>
<path d="M5.67436e-05 29.62C5.67436e-05 31.0513 1.16195 32.2076 2.58766 32.2076C4.01337 32.2076 5.17529 31.0457 5.17529 29.62C5.17529 28.1886 4.01337 27.0323 2.58766 27.0323C1.15633 27.0323 5.67436e-05 28.1942 5.67436e-05 29.62Z" fill="#052439"/>
<path d="M11.0914 21.975C11.0914 23.4064 12.2533 24.5626 13.679 24.5626C15.1047 24.5626 16.2666 23.4007 16.2666 21.975C16.2666 20.5437 15.1047 19.3874 13.679 19.3874C12.2533 19.3874 11.0914 20.5493 11.0914 21.975Z" fill="#052439"/>
<path d="M14.6782 9.7442C14.6782 11.1755 15.8401 12.3318 17.2658 12.3318C18.6971 12.3318 19.8534 11.1699 19.8534 9.7442C19.8534 8.31848 18.6915 7.15659 17.2658 7.15659C15.8401 7.15659 14.6782 8.31848 14.6782 9.7442Z" fill="#052439"/>
<path d="M134.398 56.4502C134.398 57.8816 135.56 59.0379 136.986 59.0379C138.412 59.0379 139.574 57.876 139.574 56.4502C139.574 55.0189 138.412 53.8626 136.986 53.8626C135.56 53.8626 134.398 55.0245 134.398 56.4502Z" fill="#052439"/>
</g>
<defs>
<clipPath id="clip0_6_4799">
<rect width="319" height="94.8659" fill="white" transform="matrix(-1 0 0 1 319 0)"/>
</clipPath>
</defs>
</svg>
