<svg width="317" height="94" viewBox="0 0 317 94" fill="none" xmlns="http://www.w3.org/2000/svg">
<g clip-path="url(#clip0_6_4843)">
<path d="M169.034 68.8162H108.422L100.34 76.8975H63.3322V77.6984H100.674L108.755 69.6171H169.034V68.8162Z" fill="#052439"/>
<path d="M97.5984 71.4024H58.321L39.0883 90.6351H11.9411V91.436H39.422L58.6547 72.2033H97.5984V71.4024Z" fill="#052439"/>
<path d="M142.855 40.6901H79.6561L34.6055 85.7407L35.1728 86.308L79.9843 41.491H142.855V40.6901Z" fill="#052439"/>
<path d="M135.741 34.1884H77.0254L30.2006 81.0188H2.56403V81.8197H30.5288L77.3591 34.9893H135.741V34.1884Z" fill="#052439"/>
<path d="M213.317 52.7314H166.687L156.264 63.1598H69.1555V63.9607H156.593L167.021 53.5323H213.317V52.7314Z" fill="#052439"/>
<path d="M150.931 58.4045H75.9408V57.6036H150.931V58.4045Z" fill="#052439"/>
<path d="M228.356 21.9858H186.81L157.555 51.2353H80.7908V52.0418H157.888L187.138 22.7867H228.023L270.287 65.0508H313.524V64.2499H270.615L228.356 21.9858Z" fill="#052439"/>
<path d="M143.077 2.28035L142.51 2.84765L155.942 16.2794H233.718L276.182 58.7493H309.32V57.9429H276.516L234.052 15.4785H156.27L143.077 2.28035Z" fill="#052439"/>
<path d="M70.5293 13.8211H20.6677V14.622H70.2011L78.3603 22.7867H174.852V21.9858H78.694L70.5293 13.8211Z" fill="#052439"/>
<path d="M65.1954 20.2894H32.3029V21.0903H64.8673L72.22 28.443H163.233V27.6421H72.5537L65.1954 20.2894Z" fill="#052439"/>
<path d="M224.152 59.6448H171.298V60.4457H223.818L248.123 84.7452H298.975V83.9443H248.457L224.152 59.6448Z" fill="#052439"/>
<path d="M226.059 46.8693H173.562V46.0684H226.059V46.8693Z" fill="#052439"/>
<path d="M232.878 37.6645H180.347V38.4654H232.545L266.711 72.626H302.534V71.8251H267.044L232.878 37.6645Z" fill="#052439"/>
<path d="M231.21 54.4612L230.648 55.0285L254.286 78.6661H292.022V77.8652H254.614L231.21 54.4612Z" fill="#052439"/>
<path d="M9.37167 88.0656C7.7365 88.0656 6.40723 89.3948 6.40723 91.03C6.40723 92.6652 7.7365 94 9.37167 94C11.0068 94 12.3361 92.6707 12.3361 91.0356C12.3361 89.4004 11.0068 88.0711 9.37167 88.0711V88.0656ZM9.37167 93.1991C8.17588 93.1991 7.20813 92.2258 7.20813 91.0356C7.20813 89.8453 8.18144 88.872 9.37167 88.872C10.5619 88.872 11.5352 89.8453 11.5352 91.0356C11.5352 92.2313 10.5619 93.1991 9.37167 93.1991Z" fill="#052439"/>
<path d="M171.298 66.2466C169.663 66.2466 168.333 67.5759 168.333 69.2111C168.333 70.8462 169.663 72.1755 171.298 72.1755C172.933 72.1755 174.262 70.8462 174.262 69.2111C174.262 67.5759 172.933 66.2466 171.298 66.2466ZM171.298 71.3802C170.102 71.3802 169.134 70.4068 169.134 69.2166C169.134 68.0264 170.108 67.0531 171.298 67.0531C172.488 67.0531 173.461 68.0264 173.461 69.2166C173.461 70.4068 172.488 71.3802 171.298 71.3802Z" fill="#052439"/>
<path d="M170.992 43.4988C169.357 43.4988 168.028 44.8281 168.028 46.4633C168.028 48.0984 169.357 49.4277 170.992 49.4277C172.627 49.4277 173.956 48.0984 173.956 46.4633C173.956 44.8281 172.627 43.4988 170.992 43.4988ZM170.992 48.6324C169.796 48.6324 168.828 47.6591 168.828 46.4688C168.828 45.273 169.802 44.3053 170.992 44.3053C172.182 44.3053 173.156 45.2786 173.156 46.4688C173.156 47.6591 172.182 48.6324 170.992 48.6324Z" fill="#052439"/>
<path d="M215.887 50.1675C214.252 50.1675 212.922 51.4967 212.922 53.1319C212.922 54.7671 214.252 56.0963 215.887 56.0963C217.522 56.0963 218.851 54.7671 218.851 53.1319C218.851 51.4967 217.522 50.1675 215.887 50.1675ZM215.887 55.301C214.691 55.301 213.723 54.3277 213.723 53.1375C213.723 51.9472 214.697 50.9739 215.887 50.9739C217.077 50.9739 218.05 51.9472 218.05 53.1375C218.05 54.3332 217.077 55.301 215.887 55.301Z" fill="#052439"/>
<path d="M311.889 55.3788C310.254 55.3788 308.925 56.7081 308.925 58.3433C308.925 59.9785 310.254 61.3077 311.889 61.3077C313.524 61.3077 314.854 59.9785 314.854 58.3433C314.854 56.7081 313.524 55.3788 311.889 55.3788ZM311.889 60.5124C310.693 60.5124 309.726 59.5391 309.726 58.3489C309.726 57.1586 310.699 56.1853 311.889 56.1853C313.079 56.1853 314.053 57.1586 314.053 58.3489C314.053 59.5446 313.079 60.5124 311.889 60.5124Z" fill="#052439"/>
<path d="M294.586 75.2957C292.951 75.2957 291.622 76.6249 291.622 78.2601C291.622 79.8953 292.951 81.2245 294.586 81.2245C296.222 81.2245 297.551 79.8953 297.551 78.2601C297.551 76.6249 296.222 75.2957 294.586 75.2957ZM294.586 80.4292C293.391 80.4292 292.423 79.4559 292.423 78.2657C292.423 77.0754 293.396 76.1021 294.586 76.1021C295.777 76.1021 296.75 77.0754 296.75 78.2657C296.75 79.4559 295.777 80.4292 294.586 80.4292Z" fill="#052439"/>
<path d="M138.305 31.6188C136.67 31.6188 135.341 32.9481 135.341 34.5833C135.341 36.2184 136.67 37.5477 138.305 37.5477C139.94 37.5477 141.27 36.2184 141.27 34.5833C141.27 32.9481 139.94 31.6188 138.305 31.6188ZM138.305 36.7524C137.109 36.7524 136.142 35.7791 136.142 34.5888C136.142 33.3986 137.115 32.4253 138.305 32.4253C139.495 32.4253 140.469 33.3986 140.469 34.5888C140.469 35.7791 139.495 36.7524 138.305 36.7524Z" fill="#052439"/>
<path d="M29.739 17.7199C28.1038 17.7199 26.7745 19.0492 26.7745 20.6843C26.7745 22.3195 28.1038 23.6488 29.739 23.6488C31.3741 23.6488 32.7034 22.3195 32.7034 20.6843C32.7034 19.0492 31.3741 17.7199 29.739 17.7199ZM29.739 22.8534C28.5432 22.8534 27.5754 21.8801 27.5754 20.6899C27.5754 19.4997 28.5488 18.5264 29.739 18.5264C30.9292 18.5264 31.9025 19.4997 31.9025 20.6899C31.9025 21.8801 30.9292 22.8534 29.739 22.8534Z" fill="#052439"/>
<path d="M177.421 19.7944C175.786 19.7944 174.457 21.1237 174.457 22.7589C174.457 24.3941 175.786 25.7233 177.421 25.7233C179.057 25.7233 180.386 24.3941 180.386 22.7589C180.386 21.1237 179.057 19.7944 177.421 19.7944ZM177.421 24.928C176.226 24.928 175.258 23.9547 175.258 22.7644C175.258 21.5742 176.231 20.6009 177.421 20.6009C178.612 20.6009 179.585 21.5742 179.585 22.7644C179.585 23.9547 178.612 24.928 177.421 24.928Z" fill="#052439"/>
<path d="M73.3769 55.034C71.7417 55.034 70.4124 56.3633 70.4124 57.9985C70.4124 59.6336 71.7417 60.9629 73.3769 60.9629C75.012 60.9629 76.3413 59.6336 76.3413 57.9985C76.3413 56.3633 75.012 55.034 73.3769 55.034ZM73.3769 60.1676C72.1811 60.1676 71.2133 59.1942 71.2133 58.004C71.2133 56.8082 72.1866 55.8405 73.3769 55.8405C74.5726 55.8405 75.5404 56.8138 75.5404 58.004C75.5404 59.1942 74.5671 60.1676 73.3769 60.1676Z" fill="#052439"/>
<path d="M63.3322 77.2979C63.3322 75.8796 62.1809 74.7339 60.7682 74.7339C59.3555 74.7339 58.2042 75.8852 58.2042 77.2979C58.2042 78.7106 59.3555 79.8619 60.7682 79.8619C62.1865 79.8619 63.3322 78.7106 63.3322 77.2979Z" fill="#052439"/>
<path d="M37.4532 85.902C37.4532 84.4837 36.3019 83.338 34.8892 83.338C33.4765 83.338 32.3253 84.4893 32.3253 85.902C32.3253 87.3147 33.4765 88.466 34.8892 88.466C36.3019 88.466 37.4532 87.3147 37.4532 85.902Z" fill="#052439"/>
<path d="M100.162 71.8029C100.162 70.3846 99.0112 69.2389 97.5985 69.2389C96.1802 69.2389 95.0345 70.3902 95.0345 71.8029C95.0345 73.2211 96.1858 74.3668 97.5985 74.3668C99.0112 74.3668 100.162 73.2156 100.162 71.8029Z" fill="#052439"/>
<path d="M71.7194 63.5603C71.7194 62.142 70.5681 60.9963 69.1554 60.9963C67.7372 60.9963 66.5914 62.1476 66.5914 63.5603C66.5914 64.9785 67.7427 66.1243 69.1554 66.1243C70.5681 66.1243 71.7194 64.973 71.7194 63.5603Z" fill="#052439"/>
<path d="M83.3547 51.6246C83.3547 50.2064 82.2034 49.0606 80.7907 49.0606C79.378 49.0606 78.2267 50.2119 78.2267 51.6246C78.2267 53.0373 79.378 54.1886 80.7907 54.1886C82.2034 54.1886 83.3547 53.0373 83.3547 51.6246Z" fill="#052439"/>
<path d="M5.13354 81.4192C5.13354 80.0009 3.98225 78.8552 2.56955 78.8552C1.15685 78.8552 0 80.0009 0 81.4192C0 82.8375 1.15129 83.9832 2.56399 83.9832C3.98225 83.9832 5.12798 82.8319 5.12798 81.4192H5.13354Z" fill="#052439"/>
<path d="M145.419 41.0906C145.419 39.6723 144.268 38.5266 142.855 38.5266C141.437 38.5266 140.291 39.6779 140.291 41.0906C140.291 42.5088 141.442 43.6546 142.855 43.6546C144.268 43.6546 145.419 42.5033 145.419 41.0906Z" fill="#052439"/>
<path d="M23.2317 14.2215C23.2317 12.8032 22.0804 11.6575 20.6677 11.6575C19.2494 11.6575 18.1037 12.8088 18.1037 14.2215C18.1037 15.6342 19.255 16.7855 20.6677 16.7855C22.0804 16.7855 23.2317 15.6342 23.2317 14.2215Z" fill="#052439"/>
<path d="M163.233 25.3284C164.649 25.3284 165.797 26.4764 165.797 27.8924C165.797 29.3085 164.649 30.4564 163.233 30.4564C161.817 30.4564 160.669 29.3085 160.669 27.8924C160.669 26.4764 161.817 25.3284 163.233 25.3284Z" fill="#052439"/>
<path d="M145.358 2.56401C145.358 1.14575 144.206 1.71661e-05 142.794 1.71661e-05C141.375 1.71661e-05 140.23 1.15131 140.23 2.56401C140.23 3.97671 141.381 5.128 142.794 5.128C144.206 5.128 145.358 3.97671 145.358 2.56401Z" fill="#052439"/>
<path d="M153.5 57.4757C153.5 56.0574 152.349 54.9117 150.936 54.9117C149.523 54.9117 148.372 56.063 148.372 57.4757C148.372 58.8939 149.523 60.0396 150.936 60.0396C152.349 60.0396 153.5 58.8884 153.5 57.4757Z" fill="#052439"/>
<path d="M173.862 60.0452C173.862 58.6269 172.711 57.4812 171.298 57.4812C169.885 57.4812 168.734 58.6325 168.734 60.0452C168.734 61.4579 169.885 62.6092 171.298 62.6092C172.716 62.6092 173.862 61.4579 173.862 60.0452Z" fill="#052439"/>
<path d="M233.496 55.1453C233.496 53.727 232.344 52.5813 230.932 52.5813C229.519 52.5813 228.368 53.7326 228.368 55.1453C228.368 56.558 229.519 57.7092 230.932 57.7092C232.35 57.7092 233.496 56.558 233.496 55.1453Z" fill="#052439"/>
<path d="M228.623 46.4688C228.623 45.0506 227.472 43.9048 226.059 43.9048C224.641 43.9048 223.495 45.0561 223.495 46.4688C223.495 47.8815 224.647 49.0328 226.059 49.0328C227.472 49.0328 228.623 47.8815 228.623 46.4688Z" fill="#052439"/>
<path d="M316.088 64.6504C316.088 63.2321 314.937 62.0864 313.524 62.0864C312.112 62.0864 310.96 63.2377 310.96 64.6504C310.96 66.0686 312.112 67.2144 313.524 67.2144C314.943 67.2144 316.088 66.0631 316.088 64.6504Z" fill="#052439"/>
<path d="M305.098 72.2255C305.098 70.8073 303.947 69.6616 302.534 69.6616C301.121 69.6616 299.97 70.8128 299.97 72.2255C299.97 73.6438 301.121 74.7895 302.534 74.7895C303.947 74.7895 305.098 73.6382 305.098 72.2255Z" fill="#052439"/>
<path d="M301.544 84.3447C301.544 82.9265 300.393 81.7807 298.98 81.7807C297.562 81.7807 296.416 82.932 296.416 84.3447C296.416 85.7574 297.567 86.9087 298.98 86.9087C300.393 86.9087 301.544 85.7574 301.544 84.3447Z" fill="#052439"/>
<path d="M182.916 38.065C182.916 36.6467 181.765 35.501 180.352 35.501C178.94 35.501 177.789 36.6523 177.789 38.065C177.789 39.4832 178.94 40.629 180.352 40.629C181.765 40.629 182.916 39.4777 182.916 38.065Z" fill="#052439"/>
</g>
<defs>
<clipPath id="clip0_6_4843">
<rect width="316.088" height="94" fill="white" transform="matrix(1 0 0 -1 0 94)"/>
</clipPath>
</defs>
</svg>
